<?xml version="1.0" standalone="no"?>
<!DOCTYPE svg PUBLIC "-//W3C//DTD SVG 1.1//EN" "http://www.w3.org/Graphics/SVG/1.1/DTD/svg11.dtd" >
<svg xmlns="http://www.w3.org/2000/svg" xmlns:xlink="http://www.w3.org/1999/xlink" version="1.1">
<metadata>
Created by FontForge 20190801 at Fri Apr  9 09:20:22 2021
 By www-data
Copyright 2017-2021 Indian Type Foundry. All rights reserved.
</metadata>
<defs>
<font id="ClashGrotesk" horiz-adv-x="600" >
  <font-face 
    font-family="ClashGrotesk"
    font-weight="500"
    font-stretch="normal"
    units-per-em="1000"
    panose-1="0 0 0 0 0 0 0 0 0 0"
    ascent="800"
    descent="-200"
    x-height="497"
    cap-height="670"
    bbox="-204 -216 1629 890"
    underline-thickness="70"
    underline-position="-175"
    unicode-range="U+000D-FB04"
  />
<missing-glyph 
d="M49 0v650h502v-650h-502zM136 595l164 -226l164 226h-328zM104 551v-452l164 226zM332 325l164 -226v452zM136 55h328l-164 226z" />
    <glyph glyph-name="f_f" unicode="ff" horiz-adv-x="614" 
d="M187 0h-108v407h-73v90h73q2 84 51.5 128.5t143.5 44.5h40v-86h-60q-70 0 -70 -60v-27h189q2 84 51.5 128.5t143.5 44.5h40v-86h-60q-70 0 -70 -60v-27h130v-90h-127v-407h-108v407h-186v-407z" />
    <glyph glyph-name="fi" unicode="fi" horiz-adv-x="519" 
d="M187 0h-108v407h-73v90h73q2 84 51.5 128.5t143.5 44.5h40v-86h-60q-70 0 -70 -60v-27h130v-90h-127v-407zM472 560h-107l-1 110h108v-110zM473 0h-108v500h108v-500z" />
    <glyph glyph-name="fl" unicode="fl" horiz-adv-x="537" 
d="M187 0h-108v407h-73v90h73q2 84 51.5 128.5t143.5 44.5h40v-86h-60q-70 0 -70 -60v-27h130v-90h-127v-407zM484 0h-108v670h108v-670z" />
    <glyph glyph-name="f_f_i" unicode="ffi" horiz-adv-x="813" 
d="M187 0h-108v407h-73v90h73q2 84 51.5 128.5t143.5 44.5h40v-86h-60q-70 0 -70 -60v-27h189q2 84 51.5 128.5t143.5 44.5h40v-86h-60q-70 0 -70 -60v-27h130v-90h-127v-407h-108v407h-186v-407zM766 560h-107l-1 110h108v-110zM767 0h-108v500h108v-500z" />
    <glyph glyph-name="f_f_l" unicode="ffl" horiz-adv-x="831" 
d="M187 0h-108v407h-73v90h73q2 84 51.5 128.5t143.5 44.5h40v-86h-60q-70 0 -70 -60v-27h189q2 84 51.5 128.5t143.5 44.5h40v-86h-60q-70 0 -70 -60v-27h130v-90h-127v-407h-108v407h-186v-407zM778 0h-108v670h108v-670z" />
    <glyph glyph-name="f_t" unicode="ft" horiz-adv-x="647" 
d="M187 0h-108v407h-73v90h73q2 84 51.5 128.5t143.5 44.5h40v-86h-60q-70 0 -70 -60v-27h187l23 123h83v-123h150v-90h-150v-249q0 -38 18.5 -49.5t70.5 -11.5h61v-88q-38 -9 -89 -9q-86 0 -127.5 35.5t-41.5 117.5v254h-182v-407z" />
    <glyph glyph-name="f_b" unicode="fb" horiz-adv-x="895" 
d="M187 0h-108v407h-73v90h73q2 84 51.5 128.5t143.5 44.5h40v-86h-60q-70 0 -70 -60v-27h130v-90h-127v-407zM475 0h-99v670h108v-252h2q18 37 61.5 63t105.5 26q101 0 155 -69t54 -189t-56 -189.5t-159 -69.5q-130 0 -168 92h-4v-82zM484 204q0 -122 135 -122
q73 0 104.5 38t31.5 129q0 90 -32 128t-104 38q-135 0 -135 -122v-89z" />
    <glyph glyph-name="f_f_b" unicode="ffb" horiz-adv-x="1189" 
d="M187 0h-108v407h-73v90h73q2 84 51.5 128.5t143.5 44.5h40v-86h-60q-70 0 -70 -60v-27h189q2 84 51.5 128.5t143.5 44.5h40v-86h-60q-70 0 -70 -60v-27h130v-90h-127v-407h-108v407h-186v-407zM769 0h-99v670h108v-252h2q18 37 61.5 63t105.5 26q101 0 155 -69t54 -189
t-56 -189.5t-159 -69.5q-130 0 -168 92h-4v-82zM778 204q0 -122 135 -122q73 0 104.5 38t31.5 129q0 90 -32 128t-104 38q-135 0 -135 -122v-89z" />
    <glyph glyph-name="f_f_h" unicode="ffh" horiz-adv-x="1186" 
d="M187 0h-108v407h-73v90h73q2 84 51.5 128.5t143.5 44.5h40v-86h-60q-70 0 -70 -60v-27h189q2 84 51.5 128.5t143.5 44.5h40v-86h-60q-70 0 -70 -60v-27h130v-90h-127v-407h-108v407h-186v-407zM778 0h-108v670h108v-256h4q20 39 62 66t104 27q93 0 139 -53.5t46 -140.5
v-313h-108v288q0 68 -26 97t-93 29t-97.5 -29.5t-30.5 -98.5v-286z" />
    <glyph glyph-name="f_f_j" unicode="ffj" horiz-adv-x="834" 
d="M187 0h-108v407h-73v90h73q2 84 51.5 128.5t143.5 44.5h40v-86h-60q-70 0 -70 -60v-27h189q2 84 51.5 128.5t143.5 44.5h40v-86h-60q-70 0 -70 -60v-27h130v-90h-127v-407h-108v407h-186v-407zM781 560h-108v110h108v-110zM573 -170v98h39q38 0 49.5 9t11.5 40v520h108
v-498q0 -94 -45 -131.5t-132 -37.5h-31z" />
    <glyph glyph-name="f_f_k" unicode="ffk" horiz-adv-x="1142" 
d="M187 0h-108v407h-73v90h73q2 84 51.5 128.5t143.5 44.5h40v-86h-60q-70 0 -70 -60v-27h189q2 84 51.5 128.5t143.5 44.5h40v-86h-60q-70 0 -70 -60v-27h130v-90h-127v-407h-108v407h-186v-407zM778 0h-108v670h108v-370h98l133 197h127l-173 -235l170 -262h-126l-130 203
h-99v-203z" />
    <glyph glyph-name="f_h" unicode="fh" horiz-adv-x="892" 
d="M187 0h-108v407h-73v90h73q2 84 51.5 128.5t143.5 44.5h40v-86h-60q-70 0 -70 -60v-27h130v-90h-127v-407zM484 0h-108v670h108v-256h4q20 39 62 66t104 27q93 0 139 -53.5t46 -140.5v-313h-108v288q0 68 -26 97t-93 29t-97.5 -29.5t-30.5 -98.5v-286z" />
    <glyph glyph-name="f_j" unicode="fj" horiz-adv-x="541" 
d="M187 0h-108v407h-73v90h73q2 84 51.5 128.5t143.5 44.5h40v-86h-60q-70 0 -70 -60v-27h130v-90h-127v-407zM488 560h-108v110h108v-110zM280 -170v98h39q38 0 49.5 9t11.5 40v520h108v-498q0 -94 -45 -131.5t-132 -37.5h-31z" />
    <glyph glyph-name="f_k" unicode="fk" horiz-adv-x="848" 
d="M187 0h-108v407h-73v90h73q2 84 51.5 128.5t143.5 44.5h40v-86h-60q-70 0 -70 -60v-27h130v-90h-127v-407zM484 0h-108v670h108v-370h98l133 197h127l-173 -235l170 -262h-126l-130 203h-99v-203z" />
    <glyph glyph-name=".notdef" 
d="M49 0v650h502v-650h-502zM136 595l164 -226l164 226h-328zM104 551v-452l164 226zM332 325l164 -226v452zM136 55h328l-164 226z" />
    <glyph glyph-name=".null" horiz-adv-x="0" 
 />
    <glyph glyph-name="nonmarkingreturn" horiz-adv-x="333" 
 />
    <glyph glyph-name="CR" unicode="&#xd;" horiz-adv-x="300" 
 />
    <glyph glyph-name="space" unicode=" " horiz-adv-x="188" 
 />
    <glyph glyph-name="exclam" unicode="!" horiz-adv-x="231" 
d="M168 220h-105q0 51 -8 197.5t-8 182.5v70h137v-70q0 -36 -8 -183t-8 -197zM177 0h-122v148h122v-148z" />
    <glyph glyph-name="quotedbl" unicode="&#x22;" horiz-adv-x="353" 
d="M292 415h-63l-24 130v125h111v-125zM124 415h-63l-24 130v125h111v-125z" />
    <glyph glyph-name="numbersign" unicode="#" horiz-adv-x="838" 
d="M201 0h-106l59 154h-120v97h154l58 149h-149v97h189l69 173h106l-67 -173h179l68 173h106l-66 -173h123v-97h-158l-58 -149h153v-97h-195l-59 -154h-106l59 154h-180zM349 409l-63 -167h199l63 167h-199z" />
    <glyph glyph-name="dollar" unicode="$" horiz-adv-x="604" 
d="M362 -100h-100v94q-107 13 -159.5 69.5t-52.5 144.5v17h106v-11q0 -66 37 -95.5t138 -29.5q73 0 104 21t31 68t-23.5 68t-99.5 36l-114 23q-177 34 -177 184q0 73 53.5 126.5t156.5 62.5v92h100v-94q100 -14 149.5 -74t49.5 -145v-12h-106v11q0 64 -34.5 94.5
t-121.5 30.5q-73 0 -106 -21t-33 -66t24 -64t95 -34l114 -24q181 -37 181 -190q0 -78 -53.5 -130.5t-158.5 -60.5v-91z" />
    <glyph glyph-name="percent" unicode="%" horiz-adv-x="773" 
d="M187 348q-76 0 -120 46.5t-44 119.5t44 119.5t120 46.5q77 0 120.5 -46.5t43.5 -119.5t-43.5 -119.5t-120.5 -46.5zM184 0h-106l513 670h105zM187 424q44 0 62.5 20.5t18.5 69.5t-18.5 69.5t-62.5 20.5t-62 -20.5t-18 -69.5t18 -69.5t62 -20.5zM586 -10q-76 0 -120 46
t-44 120q0 73 44 119.5t120 46.5q77 0 120.5 -46.5t43.5 -119.5q0 -74 -43.5 -120t-120.5 -46zM586 66q44 0 62.5 20.5t18.5 69.5t-18.5 69.5t-62.5 20.5t-62 -20.5t-18 -69.5t18 -69.5t62 -20.5z" />
    <glyph glyph-name="ampersand" unicode="&#x26;" horiz-adv-x="675" 
d="M275 578q-54 0 -78.5 -21t-24.5 -73q0 -49 26.5 -70.5t79.5 -21.5h173v105h106v-105h108v-90h-108v-85q0 -109 -65.5 -168t-199.5 -59q-123 0 -187.5 48t-64.5 144q0 70 39 113t105 53v5q-58 9 -89 50.5t-31 100.5q0 87 60 130t167 43h106v-99h-122zM297 89
q90 0 122 27.5t32 100.5v85h-172q-67 0 -98.5 -24t-31.5 -85q0 -59 32 -81.5t116 -22.5z" />
    <glyph glyph-name="quotesingle" unicode="'" horiz-adv-x="185" 
d="M124 415h-63l-24 130v125h111v-125z" />
    <glyph glyph-name="parenleft" unicode="(" horiz-adv-x="322" 
d="M305 -17l-55 -55q-200 179 -200 407t200 407l55 -55q-78 -84 -108 -157t-30 -195t30 -195t108 -157z" />
    <glyph glyph-name="parenright" unicode=")" horiz-adv-x="322" 
d="M10 687l55 55q200 -179 200 -407t-200 -407l-55 55q78 84 108 157t30 195t-30 195t-108 157z" />
    <glyph glyph-name="asterisk" unicode="*" horiz-adv-x="412" 
d="M195 452l-59 -91l-65 47l69 84l-2 8l-105 28l25 76l102 -41l6 5l-6 109h80l-7 -109l7 -5l101 40l25 -76l-106 -27l-2 -8l69 -84l-65 -48l-58 92h-9z" />
    <glyph glyph-name="plus" unicode="+" horiz-adv-x="482" 
d="M288 127h-94v163h-161v90h161v163h94v-163h162v-90h-162v-163z" />
    <glyph glyph-name="comma" unicode="," horiz-adv-x="200" 
d="M69 -118h-36v71h33q14 0 20 5t6 21v21h-61v155h137v-174q0 -99 -99 -99z" />
    <glyph glyph-name="hyphen" unicode="-" horiz-adv-x="365" 
d="M342 248h-319v92h319v-92z" />
    <glyph glyph-name="period" unicode="." horiz-adv-x="200" 
d="M168 0h-137v155h137v-155z" />
    <glyph glyph-name="slash" unicode="/" horiz-adv-x="427" 
d="M89 -20h-109l360 710h109z" />
    <glyph glyph-name="zero" unicode="0" horiz-adv-x="687" 
d="M343 -10q-135 0 -212 92.5t-77 252.5t77 252.5t212 92.5t212.5 -93t77.5 -252t-77.5 -252t-212.5 -93zM343 94q91 0 133 55.5t42 185.5t-42 185.5t-133 55.5t-132.5 -55.5t-41.5 -185.5t41.5 -185.5t132.5 -55.5z" />
    <glyph glyph-name="one" unicode="1" horiz-adv-x="328" 
d="M272 0h-108v510h-141v77h26q48 0 77.5 19t50.5 64h95v-670z" />
    <glyph glyph-name="two" unicode="2" horiz-adv-x="608" 
d="M553 0h-494v67q0 86 47 137.5t133 95.5l103 53q56 29 78.5 56t22.5 69q0 51 -28 77t-106 26q-88 0 -117.5 -29.5t-29.5 -102.5v-14h-108v16q0 101 65.5 165t197.5 64q118 0 176 -54.5t58 -143.5q0 -76 -43 -125.5t-118 -87.5l-98 -50q-61 -31 -90.5 -57.5t-29.5 -64.5
h381v-97z" />
    <glyph glyph-name="three" unicode="3" horiz-adv-x="603" 
d="M304 -10q-264 0 -264 215v16h106v-15q0 -66 32 -91.5t128 -25.5q81 0 114.5 23t33.5 81q0 62 -29.5 85.5t-100.5 23.5h-134v90h119q67 0 94.5 20t27.5 72t-31.5 74.5t-102.5 22.5q-86 0 -118.5 -26.5t-32.5 -90.5v-8h-106v9q0 98 67.5 156.5t190.5 58.5q114 0 177.5 -46
t63.5 -133q0 -60 -31 -98.5t-93 -47.5v-4q70 -10 109 -54t39 -115q0 -94 -69.5 -143t-189.5 -49z" />
    <glyph glyph-name="four" unicode="4" horiz-adv-x="631" 
d="M507 0h-107v139h-387v75l369 456h125v-434h104v-97h-104v-139zM151 236h249v301h-8l-241 -293v-8z" />
    <glyph glyph-name="five" unicode="5" horiz-adv-x="636" 
d="M318 -10q-128 0 -196 53t-68 147v6h107v-6q0 -55 38 -78t123 -23q88 0 122.5 28t34.5 99q0 68 -35.5 96.5t-120.5 28.5q-90 0 -163 -42l-95 15l23 356h462v-97h-367l-16 -195h3q68 56 186 56q108 0 169 -57t61 -158q0 -108 -66.5 -168.5t-201.5 -60.5z" />
    <glyph glyph-name="six" unicode="6" horiz-adv-x="642" 
d="M335 -10q-150 0 -214 85t-64 267q0 160 71 249t216 89q108 0 172.5 -55t64.5 -151v-6h-114v6q0 50 -31 76t-106 26q-94 0 -128.5 -48.5t-34.5 -159.5v-55h5q48 102 200 102q109 0 168 -55t59 -152q0 -101 -69 -159.5t-195 -58.5zM338 94q85 0 119.5 27.5t34.5 88.5
q0 60 -34 87t-119 27q-84 0 -120.5 -27.5t-36.5 -87.5t36.5 -87.5t119.5 -27.5z" />
    <glyph glyph-name="seven" unicode="7" horiz-adv-x="538" 
d="M262 -1h-117q0 350 246 569v5h-374v97h503v-89q-136 -124 -197 -263.5t-61 -318.5z" />
    <glyph glyph-name="eight" unicode="8" horiz-adv-x="615" 
d="M307 -10q-131 0 -202.5 49t-71.5 144q0 67 37 109t97 59v4q-53 9 -83.5 48.5t-30.5 97.5q0 81 65.5 130t188.5 49t188.5 -49t65.5 -130q0 -58 -30.5 -97.5t-82.5 -48.5v-4q60 -17 97 -59t37 -109q0 -95 -72 -144t-203 -49zM307 385q80 0 113 23.5t33 75.5
q0 50 -32.5 73.5t-113.5 23.5t-113.5 -23.5t-32.5 -73.5q0 -52 33 -75.5t113 -23.5zM307 89q95 0 130.5 26.5t35.5 84.5t-36 84.5t-130 26.5q-93 0 -129 -26.5t-36 -84.5t35.5 -84.5t129.5 -26.5z" />
    <glyph glyph-name="nine" unicode="9" horiz-adv-x="642" 
d="M325 -10q-111 0 -176.5 56.5t-65.5 152.5v6h114v-6q0 -51 30.5 -78t105.5 -27q91 0 122 46t31 162v55h-5q-52 -102 -200 -102q-109 0 -167 55t-58 152q0 101 68.5 159.5t194.5 58.5q151 0 214.5 -81.5t63.5 -263.5q0 -345 -272 -345zM316 346q83 0 119 27.5t36 87.5
t-36 87.5t-119 27.5q-85 0 -120 -27.5t-35 -88.5q0 -60 34.5 -87t120.5 -27z" />
    <glyph glyph-name="colon" unicode=":" horiz-adv-x="200" 
d="M175 342h-137v155h137v-155zM175 0h-137v155h137v-155z" />
    <glyph glyph-name="semicolon" unicode=";" horiz-adv-x="200" 
d="M175 342h-137v155h137v-155zM76 -118h-36v71h33q14 0 20 5t6 21v21h-61v155h137v-174q0 -99 -99 -99z" />
    <glyph glyph-name="less" unicode="&#x3c;" horiz-adv-x="480" 
d="M22 398l417 159v-102l-318 -116v-8l318 -116v-102l-417 159v126z" />
    <glyph glyph-name="equal" unicode="=" horiz-adv-x="482" 
d="M450 403h-417v90h417v-90zM450 177h-417v90h417v-90z" />
    <glyph glyph-name="greater" unicode="&#x3e;" horiz-adv-x="480" 
d="M450 272l-417 -159v102l318 116v8l-318 116v102l417 -159v-126z" />
    <glyph glyph-name="question" unicode="?" horiz-adv-x="547" 
d="M296 219h-108v27q0 44 17 70t61 47l60 29q48 24 67 42t19 54q0 47 -27 70t-100 23q-85 0 -117 -27t-32 -91v-15h-106v16q0 95 65.5 155.5t193.5 60.5q118 0 174.5 -51t56.5 -135q0 -110 -129 -171l-57 -26q-22 -10 -30 -21.5t-8 -31.5v-25zM305 0h-123v148h123v-148z" />
    <glyph glyph-name="at" unicode="@" horiz-adv-x="910" 
d="M412 42q-79 0 -121 55.5t-42 147.5q0 90 44.5 146.5t123.5 56.5q93 0 123 -80h5v72h95v-255q0 -33 13 -47.5t43 -14.5q37 0 52 32t15 116q0 156 -69.5 224.5t-227.5 68.5q-160 0 -237 -74t-77 -242q0 -164 73.5 -236.5t226.5 -72.5q63 0 142 24l23 -83q-82 -29 -179 -29
q-183 0 -285.5 105t-102.5 292t114.5 299t306.5 112q182 0 285.5 -97.5t103.5 -269.5q0 -118 -45 -184.5t-131 -66.5q-112 0 -138 87h-2q-31 -86 -132 -86zM350 245q0 -64 22 -93t73 -29q49 0 71.5 22t22.5 70v60q0 49 -22 70.5t-71 21.5q-53 0 -74.5 -28.5t-21.5 -93.5z
" />
    <glyph glyph-name="A" unicode="A" horiz-adv-x="696" 
d="M122 0h-113l261 670h155l261 -670h-117l-68 174h-311zM298 448l-70 -177h235l-70 177l-43 124h-8z" />
    <glyph glyph-name="B" unicode="B" horiz-adv-x="631" 
d="M376 0h-320v670h308q100 0 155 -42t55 -125q0 -59 -33 -96.5t-97 -47.5v-8q75 -10 114.5 -54.5t39.5 -112.5q0 -86 -58.5 -135t-163.5 -49zM164 573v-181h190q62 0 87.5 20t25.5 70q0 51 -24.5 71t-85.5 20h-193zM164 302v-205h209q63 0 89.5 22t26.5 80t-26.5 80.5
t-89.5 22.5h-209z" />
    <glyph glyph-name="C" unicode="C" horiz-adv-x="674" 
d="M349 -10q-145 0 -229 93.5t-84 251.5t84 251.5t229 93.5q135 0 212 -70t77 -191v-6h-115v6q0 83 -41.5 120t-135.5 37q-105 0 -150 -55.5t-45 -185.5t45 -185.5t150 -55.5q94 0 135.5 37t41.5 120v6h115v-6q0 -121 -77 -191t-212 -70z" />
    <glyph glyph-name="D" unicode="D" horiz-adv-x="666" 
d="M294 0h-238v670h238q156 0 247.5 -90t91.5 -245t-91.5 -245t-247.5 -90zM294 573h-130v-476h130q120 0 172 54.5t52 183.5t-52 183.5t-172 54.5z" />
    <glyph glyph-name="E" unicode="E" horiz-adv-x="575" 
d="M535 0h-479v670h479v-97h-371v-187h356v-98h-356v-191h371v-97z" />
    <glyph glyph-name="F" unicode="F" horiz-adv-x="561" 
d="M164 0h-108v670h475v-97h-367v-207h352v-98h-352v-268z" />
    <glyph glyph-name="G" unicode="G" horiz-adv-x="696" 
d="M331 -10q-141 0 -219.5 92t-78.5 253q0 158 85.5 251.5t233.5 93.5q134 0 211 -67t77 -183v-7h-114v7q0 76 -42 111t-137 35q-106 0 -152.5 -55.5t-46.5 -185.5t48.5 -185.5t159.5 -55.5q95 0 138 32t43 109v16h-209v93h313v-344h-99v105h-4q-20 -50 -74 -82.5
t-133 -32.5z" />
    <glyph glyph-name="H" unicode="H" horiz-adv-x="665" 
d="M164 0h-108v670h108v-284h338v284h108v-670h-108v289h-338v-289z" />
    <glyph glyph-name="I" unicode="I" horiz-adv-x="220" 
d="M164 0h-108v670h108v-670z" />
    <glyph glyph-name="J" unicode="J" horiz-adv-x="562" 
d="M265 -10q-252 0 -252 254v28h114v-36q0 -80 26.5 -111t108.5 -31t108 31t26 111v434h115v-426q0 -119 -60 -186.5t-186 -67.5z" />
    <glyph glyph-name="K" unicode="K" horiz-adv-x="630" 
d="M164 0h-108v670h108v-286h155l176 286h123l-208 -332l207 -338h-124l-172 280h-157v-280z" />
    <glyph glyph-name="L" unicode="L" horiz-adv-x="539" 
d="M521 0h-465v670h108v-573h357v-97z" />
    <glyph glyph-name="M" unicode="M" horiz-adv-x="846" 
d="M164 0h-108v670h153l153 -368l59 -160h8l58 160l150 368h153v-670h-107v396l4 112h-7l-42 -112l-150 -356h-130l-151 356l-40 112h-9l6 -112v-396z" />
    <glyph glyph-name="N" unicode="N" horiz-adv-x="668" 
d="M164 0h-108v670h116l254 -384l71 -107h8v491h108v-670h-116l-253 378l-73 109h-7v-487z" />
    <glyph glyph-name="O" unicode="O" horiz-adv-x="697" 
d="M349 -10q-143 0 -228 94t-85 251t85 251t228 94q142 0 227 -94t85 -251t-85 -251t-227 -94zM349 94q105 0 151 55.5t46 185.5t-46 185.5t-151 55.5t-151.5 -55.5t-46.5 -185.5t46.5 -185.5t151.5 -55.5z" />
    <glyph glyph-name="P" unicode="P" horiz-adv-x="607" 
d="M164 0h-108v670h285q108 0 175.5 -60.5t67.5 -166.5t-67.5 -166.5t-175.5 -60.5h-177v-216zM354 573h-190v-260h190q67 0 95 29.5t28 100.5t-28 100.5t-95 29.5z" />
    <glyph glyph-name="Q" unicode="Q" horiz-adv-x="697" 
d="M349 -10q-143 0 -228 94t-85 251t85 251t228 94q142 0 227 -94t85 -251q0 -118 -50 -203t-139 -120l106 -153h-137l-81 131h-11zM349 94q105 0 151 55.5t46 185.5t-46 185.5t-151 55.5t-151.5 -55.5t-46.5 -185.5t46.5 -185.5t151.5 -55.5z" />
    <glyph glyph-name="R" unicode="R" horiz-adv-x="618" 
d="M164 0h-108v670h288q112 0 176.5 -53t64.5 -147q0 -83 -48.5 -131t-137.5 -53v-8q64 -21 103 -92l100 -186h-125l-95 173q-25 47 -53.5 66t-85.5 19h-79v-258zM164 573v-226h193q65 0 92.5 26t27.5 87q0 60 -27.5 86.5t-92.5 26.5h-193z" />
    <glyph glyph-name="S" unicode="S" horiz-adv-x="604" 
d="M327 -10q-140 0 -208.5 58.5t-68.5 159.5v17h106v-11q0 -66 37 -95.5t138 -29.5q73 0 104 21t31 68t-23.5 68t-99.5 36l-114 23q-177 34 -177 184q0 81 64 136t186 55q131 0 195 -63t64 -160v-12h-106v11q0 64 -34.5 94.5t-121.5 30.5q-73 0 -106 -21t-33 -66t24 -64
t95 -34l114 -24q181 -37 181 -190q0 -84 -62.5 -138t-184.5 -54z" />
    <glyph glyph-name="T" unicode="T" horiz-adv-x="575" 
d="M341 0h-107v573h-228v97h563v-97h-228v-573z" />
    <glyph glyph-name="U" unicode="U" horiz-adv-x="678" 
d="M339 -10q-136 0 -210.5 71.5t-74.5 200.5v408h107v-408q0 -91 40 -129.5t138 -38.5t137.5 38.5t39.5 129.5v408h108v-408q0 -129 -75 -200.5t-210 -71.5z" />
    <glyph glyph-name="V" unicode="V" horiz-adv-x="677" 
d="M410 0h-143l-254 670h121l202 -550h8l200 550h120z" />
    <glyph glyph-name="W" unicode="W" horiz-adv-x="992" 
d="M334 0h-157l-155 670h124l83 -377l29 -185h8l43 185l111 377h151l111 -377l43 -185h8l29 185l84 377h122l-156 -670h-157l-102 341l-54 208h-9l-54 -208z" />
    <glyph glyph-name="X" unicode="X" horiz-adv-x="709" 
d="M165 0h-127l228 334v8l-228 328h129l182 -261h8l180 261h127l-228 -328v-8l228 -334h-129l-182 267h-7z" />
    <glyph glyph-name="Y" unicode="Y" horiz-adv-x="634" 
d="M370 0h-107v249l-260 421h123l127 -207l62 -105h7l61 105l126 207h122l-261 -423v-247z" />
    <glyph glyph-name="Z" unicode="Z" horiz-adv-x="590" 
d="M570 0h-547v90l387 475v8h-367v97h512v-90l-388 -475v-8h403v-97z" />
    <glyph glyph-name="bracketleft" unicode="[" horiz-adv-x="280" 
d="M263 -60h-207v790h207v-90h-106v-610h106v-90z" />
    <glyph glyph-name="backslash" unicode="\" horiz-adv-x="435" 
d="M455 -20h-115l-360 710h115z" />
    <glyph glyph-name="bracketright" unicode="]" horiz-adv-x="280" 
d="M-3 30h106v610h-106v90h207v-790h-207v90z" />
    <glyph glyph-name="asciicircum" unicode="^" horiz-adv-x="478" 
d="M125 280h-101l151 390h128l151 -390h-100l-111 292h-8z" />
    <glyph glyph-name="underscore" unicode="_" horiz-adv-x="380" 
d="M370 -78h-360v78h360v-78z" />
    <glyph glyph-name="grave" unicode="`" 
d="M425 560h-112l-138 125v5h143l107 -125v-5z" />
    <glyph glyph-name="a" unicode="a" horiz-adv-x="524" 
d="M189 -10q-69 0 -113.5 35t-44.5 98q0 117 166 140l174 26v27q0 54 -26 75t-86 21q-59 0 -84.5 -21t-25.5 -70v-15h-104v10q0 84 60.5 137.5t159.5 53.5q101 0 155 -55.5t54 -149.5v-302h-100v78h-5q-54 -88 -180 -88zM136 131q0 -29 20.5 -42t67.5 -13q62 0 104.5 29.5
t42.5 98.5v9l-158 -24q-43 -6 -60 -18.5t-17 -39.5z" />
    <glyph glyph-name="b" unicode="b" horiz-adv-x="572" 
d="M152 0h-99v670h108v-252h2q18 37 61.5 63t105.5 26q101 0 155 -69t54 -189t-56 -189.5t-159 -69.5q-130 0 -168 92h-4v-82zM161 204q0 -122 135 -122q73 0 104.5 38t31.5 129q0 90 -32 128t-104 38q-135 0 -135 -122v-89z" />
    <glyph glyph-name="c" unicode="c" horiz-adv-x="534" 
d="M276 -11q-114 0 -178.5 70.5t-64.5 188.5t65.5 188.5t181.5 70.5q98 0 159.5 -55.5t61.5 -144.5v-9h-107v6q0 55 -29.5 80.5t-91.5 25.5q-71 0 -102 -39.5t-31 -122.5t31 -122t102 -39q62 0 91.5 25t29.5 80v6h107v-9q0 -89 -62.5 -144.5t-162.5 -55.5z" />
    <glyph glyph-name="d" unicode="d" horiz-adv-x="572" 
d="M252 -10q-105 0 -162 69.5t-57 189.5q0 119 56 188.5t157 69.5q62 0 103.5 -25t59.5 -62h3v250h107v-670h-99v82h-4q-39 -92 -164 -92zM141 249q0 -91 31 -129t104 -38q136 0 136 122v89q0 122 -136 122q-72 0 -103.5 -37.5t-31.5 -128.5z" />
    <glyph glyph-name="e" unicode="e" horiz-adv-x="539" 
d="M274 -10q-119 0 -180 69.5t-61 189.5q0 116 65 187t175 71q102 0 165 -58t63 -158q0 -38 -6 -68h-361q3 -71 34.5 -104t106.5 -33q115 0 115 73v8h107v-9q0 -76 -61 -122t-162 -46zM271 416q-68 0 -99.5 -30.5t-36.5 -90.5h263q3 62 -29.5 91.5t-97.5 29.5z" />
    <glyph glyph-name="f" unicode="f" horiz-adv-x="321" 
d="M187 0h-108v407h-73v90h73q2 84 51.5 128.5t143.5 44.5h40v-86h-60q-70 0 -70 -60v-27h130v-90h-127v-407z" />
    <glyph glyph-name="g" unicode="g" horiz-adv-x="572" 
d="M246 47q-101 0 -157 62t-56 168q0 107 56.5 168.5t160.5 61.5q60 0 104 -24.5t62 -67.5h4v82h99v-461q0 -108 -60 -162t-171 -54q-107 0 -168 49t-61 138h107q0 -52 25.5 -71.5t99.5 -19.5q72 0 96.5 25t24.5 95v99h-4q-18 -38 -61 -63t-101 -25zM141 277
q0 -75 32 -106.5t104 -31.5q63 0 99 31t36 92v31q0 61 -36.5 91.5t-100.5 30.5q-71 0 -102.5 -31.5t-31.5 -106.5z" />
    <glyph glyph-name="h" unicode="h" horiz-adv-x="569" 
d="M161 0h-108v670h108v-256h4q20 39 62 66t104 27q93 0 139 -53.5t46 -140.5v-313h-108v288q0 68 -26 97t-93 29t-97.5 -29.5t-30.5 -98.5v-286z" />
    <glyph glyph-name="i" unicode="i" horiz-adv-x="201" 
d="M154 560h-107l-1 110h108v-110zM155 0h-108v500h108v-500z" />
    <glyph glyph-name="j" unicode="j" horiz-adv-x="216" 
d="M163 560h-108v110h108v-110zM-45 -170v98h39q38 0 49.5 9t11.5 40v520h108v-498q0 -94 -45 -131.5t-132 -37.5h-31z" />
    <glyph glyph-name="k" unicode="k" horiz-adv-x="525" 
d="M161 0h-108v670h108v-370h98l133 197h127l-173 -235l170 -262h-126l-130 203h-99v-203z" />
    <glyph glyph-name="l" unicode="l" horiz-adv-x="214" 
d="M161 0h-108v670h108v-670z" />
    <glyph glyph-name="m" unicode="m" horiz-adv-x="901" 
d="M161 0h-108v497h99v-93h4q45 103 170 103q126 0 165 -103h3q46 103 172 103q92 0 138.5 -53t46.5 -142v-312h-108v288q0 68 -25.5 97t-91.5 29q-63 0 -91.5 -29t-28.5 -96v-289h-108v288q0 68 -25.5 97t-91.5 29q-63 0 -91.5 -29t-28.5 -95v-290z" />
    <glyph glyph-name="n" unicode="n" horiz-adv-x="566" 
d="M161 0h-108v497h99v-93h4q45 103 173 103q93 0 140 -53t47 -142v-312h-108v288q0 68 -26 97t-93 29t-97.5 -29t-30.5 -98v-287z" />
    <glyph glyph-name="o" unicode="o" horiz-adv-x="558" 
d="M281 -10q-114 0 -181 71t-67 188q0 116 67 187t181 71q113 0 178.5 -70.5t65.5 -187.5t-65.5 -188t-178.5 -71zM281 86q77 0 108.5 38.5t31.5 124.5q0 85 -32 123.5t-108 38.5q-77 0 -109.5 -38.5t-32.5 -123.5q0 -86 32.5 -124.5t109.5 -38.5z" />
    <glyph glyph-name="p" unicode="p" horiz-adv-x="572" 
d="M156 -173h-107v670h98v-82h5q36 92 166 92q104 0 160.5 -69.5t56.5 -189.5q0 -119 -55 -188.5t-155 -69.5q-63 0 -105.5 24.5t-60.5 62.5h-3v-250zM156 204q0 -122 136 -122q72 0 103.5 38t31.5 128q0 91 -31 129t-104 38q-136 0 -136 -122v-89z" />
    <glyph glyph-name="q" unicode="q" horiz-adv-x="572" 
d="M245 -10q-102 0 -157 69t-55 189t56 189.5t160 69.5q129 0 167 -92h4v82h99v-670h-107v250h-3q-18 -37 -60.5 -62t-103.5 -25zM141 248q0 -90 31.5 -128t103.5 -38q136 0 136 122v89q0 122 -136 122q-73 0 -104 -38t-31 -129z" />
    <glyph glyph-name="r" unicode="r" horiz-adv-x="463" 
d="M161 0h-108v500h99v-79h5q16 38 51.5 62t87.5 24q74 0 109 -47t35 -122v-33h-108v20q0 50 -17.5 70t-64.5 20q-49 0 -69 -20.5t-20 -70.5v-324z" />
    <glyph glyph-name="s" unicode="s" horiz-adv-x="495" 
d="M262 -10q-221 0 -221 178v2h104v-18q0 -42 24.5 -58t94.5 -16q57 0 76 12.5t19 42.5q0 29 -20 42t-77 23l-77 13q-71 13 -108 47t-37 99q0 69 54 109.5t150 40.5q91 0 148 -44.5t57 -126.5v-9h-103v12q0 39 -21.5 59t-83.5 20q-56 0 -77 -14t-21 -45q0 -28 17.5 -40
t70.5 -23l84 -16q74 -15 110 -49.5t36 -94.5q0 -69 -52.5 -107.5t-146.5 -38.5z" />
    <glyph glyph-name="t" unicode="t" horiz-adv-x="371" 
d="M261 0q-86 0 -127.5 35.5t-41.5 117.5v254h-83v90h85l23 123h83v-123h150v-90h-150v-249q0 -38 18.5 -49.5t70.5 -11.5h61v-88q-38 -9 -89 -9z" />
    <glyph glyph-name="u" unicode="u" horiz-adv-x="569" 
d="M238 -10q-93 0 -140.5 55t-47.5 145v307h108v-288q0 -67 28 -96.5t92 -29.5q65 0 97.5 31.5t32.5 102.5v280h108v-497h-100v99h-4q-46 -109 -174 -109z" />
    <glyph glyph-name="v" unicode="v" horiz-adv-x="547" 
d="M341 0h-136l-199 497h120l145 -394h7l146 394h117z" />
    <glyph glyph-name="w" unicode="w" horiz-adv-x="801" 
d="M275 0h-141l-123 497h117l57 -276l20 -131h8l33 131l87 276h140l88 -277l31 -130h8l20 130l58 277h112l-123 -497h-140l-89 277l-33 125h-8l-32 -125z" />
    <glyph glyph-name="x" unicode="x" horiz-adv-x="534" 
d="M128 0h-122l178 250v7l-178 240h126l134 -184h7l133 184h122l-178 -244v-8l178 -245h-126l-134 190h-7z" />
    <glyph glyph-name="y" unicode="y" horiz-adv-x="546" 
d="M138 -170q-44 0 -75 9v88h68q33 0 47.5 8.5t26.5 35.5l19 42l-211 484h119l100 -241l45 -108h8l41 108l91 241h119l-235 -556q-27 -63 -64.5 -87t-98.5 -24z" />
    <glyph glyph-name="z" unicode="z" horiz-adv-x="530" 
d="M500 0h-470v85l242 246l64 63v8h-291v95h440v-92l-249 -246l-58 -56v-8h322v-95z" />
    <glyph glyph-name="braceleft" unicode="{" horiz-adv-x="307" 
d="M290 -60h-10q-170 0 -170 184v114q0 29 -12.5 39t-48.5 10h-29v96h29q36 0 48.5 10t12.5 39v114q0 184 170 184h10v-104h-11q-43 0 -55.5 -16t-12.5 -68v-92q0 -111 -97 -111v-8q97 0 97 -111v-92q0 -52 12.5 -68t55.5 -16h11v-104z" />
    <glyph glyph-name="bar" unicode="|" horiz-adv-x="184" 
d="M142 -100h-100v870h100v-870z" />
    <glyph glyph-name="braceright" unicode="}" horiz-adv-x="307" 
d="M17 730h10q170 0 170 -184v-114q0 -29 12.5 -39t48.5 -10h29v-96h-29q-36 0 -48.5 -10t-12.5 -39v-114q0 -184 -170 -184h-10v104h11q43 0 55.5 16t12.5 68v92q0 111 97 111v8q-97 0 -97 111v92q0 52 -12.5 68t-55.5 16h-11v104z" />
    <glyph glyph-name="asciitilde" unicode="~" horiz-adv-x="541" 
d="M136 248h-91v58q0 47 23 83t82 36q39 0 95 -30l57 -28q54 -27 76 -27q30 0 30 32v47h90v-63q0 -113 -95 -113q-47 0 -113 34l-58 28q-46 22 -64 22q-32 0 -32 -35v-44z" />
    <glyph glyph-name="nbspace" unicode="&#xa0;" horiz-adv-x="188" 
 />
    <glyph glyph-name="exclamdown" unicode="&#xa1;" horiz-adv-x="231" 
d="M54 500h122v-148h-122v148zM63 280h105q0 -51 8 -197.5t8 -182.5v-70h-137v70q0 36 8 183t8 197z" />
    <glyph glyph-name="cent" unicode="&#xa2;" horiz-adv-x="534" 
d="M323 -100h-100v93q-90 16 -140 84.5t-50 170.5t50 169.5t140 84.5v98h100v-96q81 -12 129.5 -65.5t48.5 -131.5v-9h-107v6q0 55 -29.5 80.5t-91.5 25.5q-71 0 -102 -39.5t-31 -122.5t31 -122t102 -39q62 0 91.5 25t29.5 80v6h107v-9q0 -78 -48.5 -130.5t-129.5 -65.5v-93
z" />
    <glyph glyph-name="sterling" unicode="&#xa3;" horiz-adv-x="598" 
d="M407 270h-146q18 -40 18 -74q0 -66 -60 -94v-5h349v-97h-520v97h30q48 0 77 22t29 61q0 43 -26 85l-3 5h-115v90h62q-35 63 -35 127q0 84 64.5 138.5t185.5 54.5q125 0 185 -61t60 -158v-16h-106v14q0 67 -29.5 94.5t-114.5 27.5q-74 0 -105.5 -25t-31.5 -75
q0 -43 38 -116l3 -5h191v-90z" />
    <glyph glyph-name="currency" unicode="&#xa4;" horiz-adv-x="570" 
d="M286 85q-79 0 -142 42l-86 -83l-43 45l84 81q-50 61 -50 145q0 83 50 145l-84 81l43 45l86 -84q61 43 142 43t142 -43l85 84l43 -45l-84 -81q49 -61 49 -145q0 -82 -49 -145l84 -81l-43 -45l-86 84q-61 -43 -141 -43zM286 180q131 0 131 135q0 134 -131 134t-131 -134
q0 -135 131 -135z" />
    <glyph glyph-name="yen" unicode="&#xa5;" horiz-adv-x="693" 
d="M407 0h-107v181h-261v90h248l-51 82h-197v89h142l-142 228h121l149 -240l42 -81h8l42 81l148 240h118l-141 -228h141v-89h-197l-51 -82h248v-90h-260v-181z" />
    <glyph glyph-name="brokenbar" unicode="&#xa6;" horiz-adv-x="201" 
d="M151 375h-101v395h101v-395zM151 -100h-101v395h101v-395z" />
    <glyph glyph-name="section" unicode="&#xa7;" horiz-adv-x="495" 
d="M259 -10q-106 0 -163 43.5t-57 127.5v11h105v-17q0 -38 22.5 -57t87.5 -19q59 0 80.5 13t21.5 43q0 25 -18 37t-70 25l-122 31q-52 12 -80 37.5t-28 71.5q0 66 73 90v4q-73 26 -73 106q0 66 53 104.5t148 38.5q97 0 152 -44t55 -127v-9h-104v16q0 40 -22.5 57.5
t-82.5 17.5q-54 0 -75.5 -13.5t-21.5 -42.5q0 -26 18 -38t69 -25l123 -32q107 -29 107 -105q0 -33 -18.5 -58.5t-53.5 -36.5v-5q73 -26 73 -100q0 -68 -52 -106.5t-147 -38.5zM188 309l109 -29q31 -8 46.5 4.5t15.5 34.5q0 19 -11.5 28.5t-39.5 15.5l-111 28
q-28 7 -43.5 -4.5t-15.5 -32.5q0 -19 10.5 -28t39.5 -17z" />
    <glyph glyph-name="dieresis" unicode="&#xa8;" 
d="M445 560h-108v124h108v-124zM262 560h-107v124h107v-124z" />
    <glyph glyph-name="copyright" unicode="&#xa9;" horiz-adv-x="728" 
d="M364 -2q-149 0 -240.5 93t-91.5 244t91.5 244t240.5 93t240.5 -93t91.5 -244t-91.5 -244t-240.5 -93zM364 76q128 0 186.5 62t58.5 197t-58.5 197t-186.5 62q-129 0 -187.5 -62t-58.5 -197t58.5 -197t187.5 -62zM369 154q-79 0 -124.5 50t-45.5 131t45.5 131t124.5 50
q70 0 114.5 -41t44.5 -104v-8h-81v6q0 39 -19 56t-59 17q-48 0 -68.5 -24.5t-20.5 -82.5t20.5 -82.5t68.5 -24.5q39 0 58.5 17t19.5 56v6h81v-8q0 -63 -44.5 -104t-114.5 -41z" />
    <glyph glyph-name="ordfeminine" unicode="&#xaa;" horiz-adv-x="224" 
d="M93 524q-52 0 -52 40q0 35 51 41l55 6v5q0 15 -6 21t-23 6t-23 -6t-6 -20v-2h-45v3q0 28 20.5 45t55.5 17t53 -17t18 -46v-90h-41v24h-2q-14 -27 -55 -27zM84 567q0 -12 23 -12q41 0 41 30l-46 -6q-18 -1 -18 -12z" />
    <glyph glyph-name="guillemotleft" unicode="&#xab;" horiz-adv-x="494" 
d="M264 363l200 138v-110l-125 -82v-8l125 -82v-110l-200 138v116zM24 363l200 138v-110l-125 -82v-8l125 -82v-110l-200 138v116z" />
    <glyph glyph-name="logicalnot" unicode="&#xac;" horiz-adv-x="482" 
d="M460 178h-94v172h-333v90h427v-262z" />
    <glyph glyph-name="softhyphen" unicode="&#xad;" horiz-adv-x="365" 
d="M342 248h-319v92h319v-92z" />
    <glyph glyph-name="registered" unicode="&#xae;" horiz-adv-x="392" 
d="M196 340q-77 0 -123.5 46.5t-46.5 120.5t46.5 120.5t123.5 46.5q78 0 124 -46.5t46 -120.5t-46 -120.5t-124 -46.5zM196 387q61 0 90.5 28.5t29.5 91.5t-29.5 91.5t-90.5 28.5t-89.5 -28.5t-28.5 -91.5t28.5 -91.5t89.5 -28.5zM172 438h-41v142h74q59 0 59 -44
q0 -19 -11 -30t-29 -11v-2q15 -5 27 -25l18 -30h-45l-17 27q-6 12 -11.5 16t-17.5 4h-6v-47zM172 546v-30h34q11 0 15 3t4 11q0 9 -4 12.5t-15 3.5h-34z" />
    <glyph glyph-name="macron" unicode="&#xaf;" 
d="M438 586h-277v78h277v-78z" />
    <glyph glyph-name="degree" unicode="&#xb0;" horiz-adv-x="232" 
d="M116 524q-37 0 -59.5 21.5t-22.5 56.5t22.5 56.5t59.5 21.5t59.5 -21.5t22.5 -56.5t-22.5 -56.5t-59.5 -21.5zM116 565q37 0 37 37t-37 37t-37 -37t37 -37z" />
    <glyph glyph-name="plusminus" unicode="&#xb1;" horiz-adv-x="490" 
d="M450 55h-417v90h168v145h-161v90h161v163h94v-163h162v-90h-162v-145h155v-90z" />
    <glyph glyph-name="twosuperior" unicode="&#xb2;" horiz-adv-x="347" 
d="M317 340h-286v35q0 49 23.5 77.5t73.5 46.5l49 19q37 14 51.5 24t14.5 28q0 22 -12.5 32.5t-49.5 10.5q-40 0 -57 -12.5t-17 -41.5v-7h-77v7q0 52 40 86.5t116 34.5q67 0 101 -28.5t34 -75.5q0 -40 -25.5 -64t-75.5 -42l-74 -28q-36 -13 -36 -37h207v-65z" />
    <glyph glyph-name="threesuperior" unicode="&#xb3;" horiz-adv-x="357" 
d="M183 335q-149 0 -149 111v11h76v-11q0 -26 15.5 -36.5t57.5 -10.5q36 0 50.5 9.5t14.5 35.5q0 25 -14 33t-49 8h-50v56h42q33 0 45 6.5t12 27.5t-12 31t-44 10q-38 0 -53 -10.5t-15 -35.5v-7h-76v7q0 51 38 80.5t109 29.5q62 0 97.5 -22.5t35.5 -67.5q0 -61 -73 -71v-5
q40 -4 63.5 -25t23.5 -59q0 -47 -39 -71t-106 -24z" />
    <glyph glyph-name="acute" unicode="&#xb4;" 
d="M287 560h-113v5l108 125h143v-5z" />
    <glyph glyph-name="paragraph" unicode="&#xb6;" horiz-adv-x="641" 
d="M371 0h-108v270h-6q-104 0 -169 51t-65 150q0 97 65 148t169 51h114v-670zM585 0h-108v670h108v-670z" />
    <glyph glyph-name="periodcentered" unicode="&#xb7;" horiz-adv-x="206" 
d="M178 250h-137v155h137v-155z" />
    <glyph glyph-name="cedilla" unicode="&#xb8;" 
d="M292 -216h-83v61h80q35 0 35 24q0 15 -8.5 20t-26.5 5h-60v109h60v-54h6q45 0 70.5 -21.5t25.5 -59.5q0 -39 -26.5 -61.5t-72.5 -22.5z" />
    <glyph glyph-name="onesuperior" unicode="&#xb9;" horiz-adv-x="225" 
d="M185 335h-80v230h-84v64h25q50 0 65 41h74v-335z" />
    <glyph glyph-name="ordmasculine" unicode="&#xba;" horiz-adv-x="232" 
d="M116 524q-37 0 -59.5 21.5t-22.5 56.5t22.5 56.5t59.5 21.5t59.5 -21.5t22.5 -56.5t-22.5 -56.5t-59.5 -21.5zM116 565q37 0 37 37t-37 37t-37 -37t37 -37z" />
    <glyph glyph-name="guillemotright" unicode="&#xbb;" horiz-adv-x="494" 
d="M230 247l-200 -138v110l125 82v8l-125 82v110l200 -138v-116zM470 247l-200 -138v110l125 82v8l-125 82v110l200 -138v-116z" />
    <glyph glyph-name="onequarter" unicode="&#xbc;" horiz-adv-x="743" 
d="M211 335h-80v230h-84v64h25q50 0 65 41h74v-335zM158 0h-106l513 670h105zM661 0h-79v66h-196v61l187 208h88v-198h52v-71h-52v-66zM475 137h107v118h-4l-103 -113v-5z" />
    <glyph glyph-name="onehalf" unicode="&#xbd;" horiz-adv-x="779" 
d="M211 335h-80v230h-84v64h25q50 0 65 41h74v-335zM158 0h-106l513 670h105zM745 0h-286v35q0 49 23.5 77.5t73.5 46.5l49 19q37 14 51.5 24t14.5 28q0 22 -12.5 32.5t-49.5 10.5q-40 0 -57 -12.5t-17 -41.5v-7h-77v7q0 52 40 86.5t116 34.5q67 0 101 -28.5t34 -75.5
q0 -40 -25.5 -64t-75.5 -42l-74 -28q-36 -13 -36 -37h207v-65z" />
    <glyph glyph-name="threequarters" unicode="&#xbe;" horiz-adv-x="807" 
d="M187 335q-149 0 -149 111v11h76v-11q0 -26 15.5 -36.5t57.5 -10.5q36 0 50.5 9.5t14.5 35.5q0 25 -14 33t-49 8h-50v56h42q33 0 45 6.5t12 27.5t-12 31t-44 10q-38 0 -53 -10.5t-15 -35.5v-7h-76v7q0 51 38 80.5t109 29.5q62 0 97.5 -22.5t35.5 -67.5q0 -61 -73 -71v-5
q40 -4 63.5 -25t23.5 -59q0 -47 -39 -71t-106 -24zM226 0h-106l513 670h105zM719 0h-79v66h-196v61l187 208h88v-198h52v-71h-52v-66zM533 137h107v118h-4l-103 -113v-5z" />
    <glyph glyph-name="questiondown" unicode="&#xbf;" horiz-adv-x="547" 
d="M242 500h123v-148h-123v148zM251 281h108v-27q0 -44 -17.5 -70t-60.5 -47l-60 -29q-48 -24 -67 -42t-19 -54q0 -47 27 -70t100 -23q85 0 117 27t32 91v15h106v-16q0 -95 -65.5 -155.5t-193.5 -60.5q-118 0 -174.5 51t-56.5 135q0 110 129 171l57 26q22 10 30 21.5t8 31.5
v25z" />
    <glyph glyph-name="Agrave" unicode="&#xc0;" horiz-adv-x="696" 
d="M399 730h-113l-135 122v5h143l105 -122v-5zM122 0h-113l261 670h155l261 -670h-117l-68 174h-311zM298 448l-70 -177h235l-70 177l-43 124h-8z" />
    <glyph glyph-name="Aacute" unicode="&#xc1;" horiz-adv-x="696" 
d="M412 730h-114v5l106 122h143v-5zM122 0h-113l261 670h155l261 -670h-117l-68 174h-311zM298 448l-70 -177h235l-70 177l-43 124h-8z" />
    <glyph glyph-name="Acircumflex" unicode="&#xc2;" horiz-adv-x="696" 
d="M285 730h-103v5l103 125h125l104 -125v-5h-103l-59 72h-8zM122 0h-113l261 670h155l261 -670h-117l-68 174h-311zM298 448l-70 -177h235l-70 177l-43 124h-8z" />
    <glyph glyph-name="Atilde" unicode="&#xc3;" horiz-adv-x="696" 
d="M267 739h-74v36q0 91 73 91q27 0 69 -24l37 -20q22 -13 38 -13q19 0 19 25v25h73v-40q0 -87 -71 -87q-30 0 -74 25l-39 21q-21 12 -33 12q-18 0 -18 -24v-27zM122 0h-113l261 670h155l261 -670h-117l-68 174h-311zM298 448l-70 -177h235l-70 177l-43 124h-8z" />
    <glyph glyph-name="Adieresis" unicode="&#xc4;" horiz-adv-x="696" 
d="M493 730h-108v124h108v-124zM311 730h-108v124h108v-124zM122 0h-113l261 670h155l261 -670h-117l-68 174h-311zM298 448l-70 -177h235l-70 177l-43 124h-8z" />
    <glyph glyph-name="Aring" unicode="&#xc5;" horiz-adv-x="696" 
d="M122 0h-113l256 657q-21 26 -21 61q0 43 28.5 68.5t75.5 25.5t75.5 -25.5t28.5 -68.5q0 -37 -22 -61l256 -657h-117l-68 174h-311zM348 676q28 0 38.5 9.5t10.5 32.5q0 24 -11 33.5t-38 9.5q-28 0 -39 -10t-11 -33t11 -32.5t39 -9.5zM298 448l-70 -177h235l-70 177
l-43 124h-8z" />
    <glyph glyph-name="AE" unicode="&#xc6;" horiz-adv-x="1045" 
d="M133 0h-133l464 670h541v-97h-371v-187h356v-98h-356v-191h371v-97h-479v174h-275zM518 570l-202 -299h210v299h-8z" />
    <glyph glyph-name="Ccedilla" unicode="&#xc7;" horiz-adv-x="674" 
d="M374 -216h-83v61h80q35 0 35 24q0 15 -8.5 20t-26.5 5h-60v98q-128 12 -201.5 104t-73.5 239q0 158 84 251.5t229 93.5q135 0 212 -70t77 -191v-6h-115v6q0 83 -41.5 120t-135.5 37q-105 0 -150 -55.5t-45 -185.5t45 -185.5t150 -55.5q94 0 135.5 37t41.5 120v6h115v-6
q0 -116 -71 -185.5t-196 -74.5v-42h6q45 0 70.5 -21.5t25.5 -59.5q0 -39 -26.5 -61.5t-72.5 -22.5z" />
    <glyph glyph-name="Egrave" unicode="&#xc8;" horiz-adv-x="575" 
d="M347 730h-113l-135 122v5h143l105 -122v-5zM535 0h-479v670h479v-97h-371v-187h356v-98h-356v-191h371v-97z" />
    <glyph glyph-name="Eacute" unicode="&#xc9;" horiz-adv-x="575" 
d="M360 730h-114v5l106 122h143v-5zM535 0h-479v670h479v-97h-371v-187h356v-98h-356v-191h371v-97z" />
    <glyph glyph-name="Ecircumflex" unicode="&#xca;" horiz-adv-x="575" 
d="M233 730h-103v5l103 125h125l104 -125v-5h-103l-59 72h-8zM535 0h-479v670h479v-97h-371v-187h356v-98h-356v-191h371v-97z" />
    <glyph glyph-name="Edieresis" unicode="&#xcb;" horiz-adv-x="575" 
d="M441 730h-108v124h108v-124zM259 730h-108v124h108v-124zM535 0h-479v670h479v-97h-371v-187h356v-98h-356v-191h371v-97z" />
    <glyph glyph-name="Igrave" unicode="&#xcc;" horiz-adv-x="220" 
d="M161 730h-113l-135 122v5h143l105 -122v-5zM164 0h-108v670h108v-670z" />
    <glyph glyph-name="Iacute" unicode="&#xcd;" horiz-adv-x="220" 
d="M174 730h-114v5l106 122h143v-5zM164 0h-108v670h108v-670z" />
    <glyph glyph-name="Icircumflex" unicode="&#xce;" horiz-adv-x="220" 
d="M47 730h-103v5l103 125h125l104 -125v-5h-103l-59 72h-8zM164 0h-108v670h108v-670z" />
    <glyph glyph-name="Idieresis" unicode="&#xcf;" horiz-adv-x="220" 
d="M255 730h-108v124h108v-124zM73 730h-108v124h108v-124zM164 0h-108v670h108v-670z" />
    <glyph glyph-name="Eth" unicode="&#xd0;" horiz-adv-x="727" 
d="M355 0h-238v286h-107v98h107v286h238q156 0 247.5 -90t91.5 -245t-91.5 -245t-247.5 -90zM415 286h-190v-189h130q120 0 172 54.5t52 183.5t-52 183.5t-172 54.5h-130v-189h190v-98z" />
    <glyph glyph-name="Ntilde" unicode="&#xd1;" horiz-adv-x="668" 
d="M253 739h-74v36q0 91 73 91q27 0 69 -24l37 -20q22 -13 38 -13q19 0 19 25v25h73v-40q0 -87 -71 -87q-30 0 -74 25l-39 21q-21 12 -33 12q-18 0 -18 -24v-27zM164 0h-108v670h116l254 -384l71 -107h8v491h108v-670h-116l-253 378l-73 109h-7v-487z" />
    <glyph glyph-name="Ograve" unicode="&#xd2;" horiz-adv-x="697" 
d="M400 730h-113l-135 122v5h143l105 -122v-5zM349 -10q-143 0 -228 94t-85 251t85 251t228 94q142 0 227 -94t85 -251t-85 -251t-227 -94zM349 94q105 0 151 55.5t46 185.5t-46 185.5t-151 55.5t-151.5 -55.5t-46.5 -185.5t46.5 -185.5t151.5 -55.5z" />
    <glyph glyph-name="Oacute" unicode="&#xd3;" horiz-adv-x="697" 
d="M413 730h-114v5l106 122h143v-5zM349 -10q-143 0 -228 94t-85 251t85 251t228 94q142 0 227 -94t85 -251t-85 -251t-227 -94zM349 94q105 0 151 55.5t46 185.5t-46 185.5t-151 55.5t-151.5 -55.5t-46.5 -185.5t46.5 -185.5t151.5 -55.5z" />
    <glyph glyph-name="Ocircumflex" unicode="&#xd4;" horiz-adv-x="697" 
d="M286 730h-103v5l103 125h125l104 -125v-5h-103l-59 72h-8zM349 -10q-143 0 -228 94t-85 251t85 251t228 94q142 0 227 -94t85 -251t-85 -251t-227 -94zM349 94q105 0 151 55.5t46 185.5t-46 185.5t-151 55.5t-151.5 -55.5t-46.5 -185.5t46.5 -185.5t151.5 -55.5z" />
    <glyph glyph-name="Otilde" unicode="&#xd5;" horiz-adv-x="697" 
d="M268 739h-74v36q0 91 73 91q27 0 69 -24l37 -20q22 -13 38 -13q19 0 19 25v25h73v-40q0 -87 -71 -87q-30 0 -74 25l-39 21q-21 12 -33 12q-18 0 -18 -24v-27zM349 -10q-143 0 -228 94t-85 251t85 251t228 94q142 0 227 -94t85 -251t-85 -251t-227 -94zM349 94
q105 0 151 55.5t46 185.5t-46 185.5t-151 55.5t-151.5 -55.5t-46.5 -185.5t46.5 -185.5t151.5 -55.5z" />
    <glyph glyph-name="Odieresis" unicode="&#xd6;" horiz-adv-x="697" 
d="M494 730h-108v124h108v-124zM312 730h-108v124h108v-124zM349 -10q-143 0 -228 94t-85 251t85 251t228 94q142 0 227 -94t85 -251t-85 -251t-227 -94zM349 94q105 0 151 55.5t46 185.5t-46 185.5t-151 55.5t-151.5 -55.5t-46.5 -185.5t46.5 -185.5t151.5 -55.5z" />
    <glyph glyph-name="multiply" unicode="&#xd7;" horiz-adv-x="458" 
d="M417 214l-67 -66l-122 122l-122 -121l-63 63l122 122l-123 122l66 66l123 -122l121 121l64 -63l-122 -122z" />
    <glyph glyph-name="Oslash" unicode="&#xd8;" horiz-adv-x="697" 
d="M349 -10q-124 0 -205 72l-87 -92l-58 55l93 98q-56 87 -56 212q0 157 85 251t228 94q122 0 204 -71l87 92l58 -55l-93 -98q56 -87 56 -213q0 -157 -85 -251t-227 -94zM151 335q0 -78 17 -131l316 333q-45 39 -135 39q-105 0 -151.5 -55.5t-46.5 -185.5zM349 94
q105 0 151 55.5t46 185.5q0 79 -17 132l-316 -333q44 -40 136 -40z" />
    <glyph glyph-name="Ugrave" unicode="&#xd9;" horiz-adv-x="678" 
d="M390 730h-113l-135 122v5h143l105 -122v-5zM339 -10q-136 0 -210.5 71.5t-74.5 200.5v408h107v-408q0 -91 40 -129.5t138 -38.5t137.5 38.5t39.5 129.5v408h108v-408q0 -129 -75 -200.5t-210 -71.5z" />
    <glyph glyph-name="Uacute" unicode="&#xda;" horiz-adv-x="678" 
d="M403 730h-114v5l106 122h143v-5zM339 -10q-136 0 -210.5 71.5t-74.5 200.5v408h107v-408q0 -91 40 -129.5t138 -38.5t137.5 38.5t39.5 129.5v408h108v-408q0 -129 -75 -200.5t-210 -71.5z" />
    <glyph glyph-name="Ucircumflex" unicode="&#xdb;" horiz-adv-x="678" 
d="M276 730h-103v5l103 125h125l104 -125v-5h-103l-59 72h-8zM339 -10q-136 0 -210.5 71.5t-74.5 200.5v408h107v-408q0 -91 40 -129.5t138 -38.5t137.5 38.5t39.5 129.5v408h108v-408q0 -129 -75 -200.5t-210 -71.5z" />
    <glyph glyph-name="Udieresis" unicode="&#xdc;" horiz-adv-x="678" 
d="M484 730h-108v124h108v-124zM302 730h-108v124h108v-124zM339 -10q-136 0 -210.5 71.5t-74.5 200.5v408h107v-408q0 -91 40 -129.5t138 -38.5t137.5 38.5t39.5 129.5v408h108v-408q0 -129 -75 -200.5t-210 -71.5z" />
    <glyph glyph-name="Yacute" unicode="&#xdd;" horiz-adv-x="634" 
d="M381 730h-114v5l106 122h143v-5zM370 0h-107v249l-260 421h123l127 -207l62 -105h7l61 105l126 207h122l-261 -423v-247z" />
    <glyph glyph-name="Thorn" unicode="&#xde;" horiz-adv-x="607" 
d="M164 0h-108v670h108v-111h177q108 0 175.5 -60t67.5 -164t-67.5 -164t-175.5 -60h-177v-111zM348 462h-184v-254h184q71 0 100 28.5t29 98.5t-29 98.5t-100 28.5z" />
    <glyph glyph-name="germandbls" unicode="&#xdf;" horiz-adv-x="567" 
d="M152 0h-106v437q0 240 250 240q108 0 166 -45t58 -128q0 -59 -32.5 -97.5t-97.5 -47.5v-8q154 -21 154 -167q0 -89 -64.5 -136.5t-166.5 -47.5h-86v97h75q78 0 105.5 21t27.5 81q0 59 -25.5 81t-90.5 22h-92v90h70q60 0 88 20t28 70q0 54 -25 75t-98 21q-83 0 -110.5 -28
t-27.5 -105v-445z" />
    <glyph glyph-name="agrave" unicode="&#xe0;" horiz-adv-x="524" 
d="M325 560h-112l-138 125v5h143l107 -125v-5zM189 -10q-69 0 -113.5 35t-44.5 98q0 117 166 140l174 26v27q0 54 -26 75t-86 21q-59 0 -84.5 -21t-25.5 -70v-15h-104v10q0 84 60.5 137.5t159.5 53.5q101 0 155 -55.5t54 -149.5v-302h-100v78h-5q-54 -88 -180 -88zM136 131
q0 -29 20.5 -42t67.5 -13q62 0 104.5 29.5t42.5 98.5v9l-158 -24q-43 -6 -60 -18.5t-17 -39.5z" />
    <glyph glyph-name="aacute" unicode="&#xe1;" horiz-adv-x="524" 
d="M321 560h-113v5l108 125h143v-5zM189 -10q-69 0 -113.5 35t-44.5 98q0 117 166 140l174 26v27q0 54 -26 75t-86 21q-59 0 -84.5 -21t-25.5 -70v-15h-104v10q0 84 60.5 137.5t159.5 53.5q101 0 155 -55.5t54 -149.5v-302h-100v78h-5q-54 -88 -180 -88zM136 131
q0 -29 20.5 -42t67.5 -13q62 0 104.5 29.5t42.5 98.5v9l-158 -24q-43 -6 -60 -18.5t-17 -39.5z" />
    <glyph glyph-name="acircumflex" unicode="&#xe2;" horiz-adv-x="524" 
d="M196 560h-103v5l103 125h125l104 -125v-5h-103l-59 72h-8zM189 -10q-69 0 -113.5 35t-44.5 98q0 117 166 140l174 26v27q0 54 -26 75t-86 21q-59 0 -84.5 -21t-25.5 -70v-15h-104v10q0 84 60.5 137.5t159.5 53.5q101 0 155 -55.5t54 -149.5v-302h-100v78h-5
q-54 -88 -180 -88zM136 131q0 -29 20.5 -42t67.5 -13q62 0 104.5 29.5t42.5 98.5v9l-158 -24q-43 -6 -60 -18.5t-17 -39.5z" />
    <glyph glyph-name="atilde" unicode="&#xe3;" horiz-adv-x="524" 
d="M178 569h-74v36q0 91 73 91q27 0 69 -24l37 -20q22 -13 38 -13q19 0 19 25v25h73v-40q0 -87 -71 -87q-30 0 -74 25l-39 21q-21 12 -33 12q-18 0 -18 -24v-27zM189 -10q-69 0 -113.5 35t-44.5 98q0 117 166 140l174 26v27q0 54 -26 75t-86 21q-59 0 -84.5 -21t-25.5 -70
v-15h-104v10q0 84 60.5 137.5t159.5 53.5q101 0 155 -55.5t54 -149.5v-302h-100v78h-5q-54 -88 -180 -88zM136 131q0 -29 20.5 -42t67.5 -13q62 0 104.5 29.5t42.5 98.5v9l-158 -24q-43 -6 -60 -18.5t-17 -39.5z" />
    <glyph glyph-name="adieresis" unicode="&#xe4;" horiz-adv-x="524" 
d="M404 560h-108v124h108v-124zM221 560h-107v124h107v-124zM189 -10q-69 0 -113.5 35t-44.5 98q0 117 166 140l174 26v27q0 54 -26 75t-86 21q-59 0 -84.5 -21t-25.5 -70v-15h-104v10q0 84 60.5 137.5t159.5 53.5q101 0 155 -55.5t54 -149.5v-302h-100v78h-5
q-54 -88 -180 -88zM136 131q0 -29 20.5 -42t67.5 -13q62 0 104.5 29.5t42.5 98.5v9l-158 -24q-43 -6 -60 -18.5t-17 -39.5z" />
    <glyph glyph-name="aring" unicode="&#xe5;" horiz-adv-x="524" 
d="M259 544q-44 0 -70.5 24t-26.5 64t26.5 64t70.5 24t70.5 -24t26.5 -64t-26.5 -64t-70.5 -24zM259 592q25 0 35.5 9t10.5 31t-10.5 31t-35.5 9q-26 0 -36.5 -9t-10.5 -31t10.5 -31t36.5 -9zM189 -10q-69 0 -113.5 35t-44.5 98q0 117 166 140l174 26v27q0 54 -26 75t-86 21
q-59 0 -84.5 -21t-25.5 -70v-15h-104v10q0 84 60.5 137.5t159.5 53.5q101 0 155 -55.5t54 -149.5v-302h-100v78h-5q-54 -88 -180 -88zM136 131q0 -29 20.5 -42t67.5 -13q62 0 104.5 29.5t42.5 98.5v9l-158 -24q-43 -6 -60 -18.5t-17 -39.5z" />
    <glyph glyph-name="ae" unicode="&#xe6;" horiz-adv-x="878" 
d="M201 -10q-78 0 -124 34t-46 100q0 60 43 95t123 44l175 22v25q0 60 -27.5 81t-85.5 21q-57 0 -83 -21t-26 -76v-9h-105v10q0 84 60 137.5t158 53.5q117 0 172 -74q66 74 180 74q101 0 163 -58t62 -159q0 -41 -5 -68h-361q2 -71 34.5 -103.5t106.5 -32.5q115 0 115 73v8
h106v-9q0 -76 -61 -122t-161 -46q-148 0 -207 107q-28 -52 -83 -79.5t-123 -27.5zM610 416q-68 0 -99 -30.5t-36 -90.5h262q3 62 -29.5 91.5t-97.5 29.5zM136 133q0 -31 20.5 -44.5t67.5 -13.5q64 0 107 31.5t43 104.5l-161 -20q-43 -5 -60 -18t-17 -40z" />
    <glyph glyph-name="ccedilla" unicode="&#xe7;" horiz-adv-x="534" 
d="M303 -216h-83v61h80q35 0 35 24q0 15 -8.5 20t-26.5 5h-60v97q-98 11 -152.5 80t-54.5 177q0 118 65.5 188.5t181.5 70.5q98 0 159.5 -55.5t61.5 -144.5v-9h-107v6q0 55 -29.5 80.5t-91.5 25.5q-71 0 -102 -39.5t-31 -122.5t31 -122t102 -39q62 0 91.5 25t29.5 80v6h107
v-9q0 -83 -55 -137.5t-146 -61.5v-41h6q45 0 70.5 -21.5t25.5 -59.5q0 -39 -26.5 -61.5t-72.5 -22.5z" />
    <glyph glyph-name="egrave" unicode="&#xe8;" horiz-adv-x="539" 
d="M335 560h-112l-138 125v5h143l107 -125v-5zM274 -10q-119 0 -180 69.5t-61 189.5q0 116 65 187t175 71q102 0 165 -58t63 -158q0 -38 -6 -68h-361q3 -71 34.5 -104t106.5 -33q115 0 115 73v8h107v-9q0 -76 -61 -122t-162 -46zM271 416q-68 0 -99.5 -30.5t-36.5 -90.5h263
q3 62 -29.5 91.5t-97.5 29.5z" />
    <glyph glyph-name="eacute" unicode="&#xe9;" horiz-adv-x="539" 
d="M332 560h-113v5l108 125h143v-5zM274 -10q-119 0 -180 69.5t-61 189.5q0 116 65 187t175 71q102 0 165 -58t63 -158q0 -38 -6 -68h-361q3 -71 34.5 -104t106.5 -33q115 0 115 73v8h107v-9q0 -76 -61 -122t-162 -46zM271 416q-68 0 -99.5 -30.5t-36.5 -90.5h263
q3 62 -29.5 91.5t-97.5 29.5z" />
    <glyph glyph-name="ecircumflex" unicode="&#xea;" horiz-adv-x="539" 
d="M206 560h-103v5l103 125h125l104 -125v-5h-103l-59 72h-8zM274 -10q-119 0 -180 69.5t-61 189.5q0 116 65 187t175 71q102 0 165 -58t63 -158q0 -38 -6 -68h-361q3 -71 34.5 -104t106.5 -33q115 0 115 73v8h107v-9q0 -76 -61 -122t-162 -46zM271 416q-68 0 -99.5 -30.5
t-36.5 -90.5h263q3 62 -29.5 91.5t-97.5 29.5z" />
    <glyph glyph-name="edieresis" unicode="&#xeb;" horiz-adv-x="539" 
d="M414 560h-108v124h108v-124zM231 560h-107v124h107v-124zM274 -10q-119 0 -180 69.5t-61 189.5q0 116 65 187t175 71q102 0 165 -58t63 -158q0 -38 -6 -68h-361q3 -71 34.5 -104t106.5 -33q115 0 115 73v8h107v-9q0 -76 -61 -122t-162 -46zM271 416q-68 0 -99.5 -30.5
t-36.5 -90.5h263q3 62 -29.5 91.5t-97.5 29.5z" />
    <glyph glyph-name="igrave" unicode="&#xec;" horiz-adv-x="200" 
d="M166 560h-112l-138 125v5h143l107 -125v-5zM154 0h-108v500h108v-500z" />
    <glyph glyph-name="iacute" unicode="&#xed;" horiz-adv-x="200" 
d="M162 560h-113v5l108 125h143v-5zM154 0h-108v500h108v-500z" />
    <glyph glyph-name="icircumflex" unicode="&#xee;" horiz-adv-x="200" 
d="M37 560h-103v5l103 125h125l104 -125v-5h-103l-59 72h-8zM154 0h-108v500h108v-500z" />
    <glyph glyph-name="idieresis" unicode="&#xef;" horiz-adv-x="200" 
d="M245 560h-108v124h108v-124zM62 560h-107v124h107v-124zM154 0h-108v500h108v-500z" />
    <glyph glyph-name="eth" unicode="&#xf0;" horiz-adv-x="643" 
d="M329 -10q-127 0 -194 60t-67 166q0 99 64 154t174 55q71 0 117.5 -25t65.5 -61l6 2q-20 90 -112 185l-187 -50l-15 54l155 41q-55 49 -130 99h145q47 -29 92 -70l162 43l16 -53l-133 -36q123 -140 123 -289q0 -130 -69 -202.5t-213 -72.5zM336 94q86 0 120.5 28t34.5 91
q0 60 -35 87.5t-119 27.5q-86 0 -121 -27.5t-35 -88.5q0 -63 34 -90.5t121 -27.5z" />
    <glyph glyph-name="ntilde" unicode="&#xf1;" horiz-adv-x="566" 
d="M204 569h-74v36q0 91 73 91q27 0 69 -24l37 -20q22 -13 38 -13q19 0 19 25v25h73v-40q0 -87 -71 -87q-30 0 -74 25l-39 21q-21 12 -33 12q-18 0 -18 -24v-27zM161 0h-108v497h99v-93h4q45 103 173 103q93 0 140 -53t47 -142v-312h-108v288q0 68 -26 97t-93 29t-97.5 -29
t-30.5 -98v-287z" />
    <glyph glyph-name="ograve" unicode="&#xf2;" horiz-adv-x="558" 
d="M345 560h-112l-138 125v5h143l107 -125v-5zM281 -10q-114 0 -181 71t-67 188q0 116 67 187t181 71q113 0 178.5 -70.5t65.5 -187.5t-65.5 -188t-178.5 -71zM281 86q77 0 108.5 38.5t31.5 124.5q0 85 -32 123.5t-108 38.5q-77 0 -109.5 -38.5t-32.5 -123.5
q0 -86 32.5 -124.5t109.5 -38.5z" />
    <glyph glyph-name="oacute" unicode="&#xf3;" horiz-adv-x="558" 
d="M342 560h-113v5l108 125h143v-5zM281 -10q-114 0 -181 71t-67 188q0 116 67 187t181 71q113 0 178.5 -70.5t65.5 -187.5t-65.5 -188t-178.5 -71zM281 86q77 0 108.5 38.5t31.5 124.5q0 85 -32 123.5t-108 38.5q-77 0 -109.5 -38.5t-32.5 -123.5q0 -86 32.5 -124.5
t109.5 -38.5z" />
    <glyph glyph-name="ocircumflex" unicode="&#xf4;" horiz-adv-x="558" 
d="M216 560h-103v5l103 125h125l104 -125v-5h-103l-59 72h-8zM281 -10q-114 0 -181 71t-67 188q0 116 67 187t181 71q113 0 178.5 -70.5t65.5 -187.5t-65.5 -188t-178.5 -71zM281 86q77 0 108.5 38.5t31.5 124.5q0 85 -32 123.5t-108 38.5q-77 0 -109.5 -38.5t-32.5 -123.5
q0 -86 32.5 -124.5t109.5 -38.5z" />
    <glyph glyph-name="otilde" unicode="&#xf5;" horiz-adv-x="558" 
d="M198 569h-74v36q0 91 73 91q27 0 69 -24l37 -20q22 -13 38 -13q19 0 19 25v25h73v-40q0 -87 -71 -87q-30 0 -74 25l-39 21q-21 12 -33 12q-18 0 -18 -24v-27zM281 -10q-114 0 -181 71t-67 188q0 116 67 187t181 71q113 0 178.5 -70.5t65.5 -187.5t-65.5 -188t-178.5 -71z
M281 86q77 0 108.5 38.5t31.5 124.5q0 85 -32 123.5t-108 38.5q-77 0 -109.5 -38.5t-32.5 -123.5q0 -86 32.5 -124.5t109.5 -38.5z" />
    <glyph glyph-name="odieresis" unicode="&#xf6;" horiz-adv-x="558" 
d="M424 560h-108v124h108v-124zM241 560h-107v124h107v-124zM281 -10q-114 0 -181 71t-67 188q0 116 67 187t181 71q113 0 178.5 -70.5t65.5 -187.5t-65.5 -188t-178.5 -71zM281 86q77 0 108.5 38.5t31.5 124.5q0 85 -32 123.5t-108 38.5q-77 0 -109.5 -38.5t-32.5 -123.5
q0 -86 32.5 -124.5t109.5 -38.5z" />
    <glyph glyph-name="divide" unicode="&#xf7;" horiz-adv-x="488" 
d="M306 457h-124v143h124v-143zM460 290h-417v90h417v-90zM306 70h-124v143h124v-143z" />
    <glyph glyph-name="oslash" unicode="&#xf8;" horiz-adv-x="558" 
d="M281 -10q-101 0 -166 57l-73 -71l-42 46l74 72q-41 64 -41 155q0 116 67 187t181 71q98 0 162 -55l72 70l43 -45l-74 -72q41 -64 41 -156q0 -117 -65.5 -188t-178.5 -71zM139 249q0 -51 10 -82l226 219q-32 25 -94 25q-77 0 -109.5 -38.5t-32.5 -123.5zM281 86
q77 0 108.5 38.5t31.5 124.5q0 53 -11 85l-227 -221q35 -27 98 -27z" />
    <glyph glyph-name="ugrave" unicode="&#xf9;" horiz-adv-x="569" 
d="M349 560h-112l-138 125v5h143l107 -125v-5zM238 -10q-93 0 -140.5 55t-47.5 145v307h108v-288q0 -67 28 -96.5t92 -29.5q65 0 97.5 31.5t32.5 102.5v280h108v-497h-100v99h-4q-46 -109 -174 -109z" />
    <glyph glyph-name="uacute" unicode="&#xfa;" horiz-adv-x="569" 
d="M345 560h-113v5l108 125h143v-5zM238 -10q-93 0 -140.5 55t-47.5 145v307h108v-288q0 -67 28 -96.5t92 -29.5q65 0 97.5 31.5t32.5 102.5v280h108v-497h-100v99h-4q-46 -109 -174 -109z" />
    <glyph glyph-name="ucircumflex" unicode="&#xfb;" horiz-adv-x="569" 
d="M220 560h-103v5l103 125h125l104 -125v-5h-103l-59 72h-8zM238 -10q-93 0 -140.5 55t-47.5 145v307h108v-288q0 -67 28 -96.5t92 -29.5q65 0 97.5 31.5t32.5 102.5v280h108v-497h-100v99h-4q-46 -109 -174 -109z" />
    <glyph glyph-name="udieresis" unicode="&#xfc;" horiz-adv-x="569" 
d="M428 560h-108v124h108v-124zM245 560h-107v124h107v-124zM238 -10q-93 0 -140.5 55t-47.5 145v307h108v-288q0 -67 28 -96.5t92 -29.5q65 0 97.5 31.5t32.5 102.5v280h108v-497h-100v99h-4q-46 -109 -174 -109z" />
    <glyph glyph-name="yacute" unicode="&#xfd;" horiz-adv-x="546" 
d="M336 560h-113v5l108 125h143v-5zM138 -170q-44 0 -75 9v88h68q33 0 47.5 8.5t26.5 35.5l19 42l-211 484h119l100 -241l45 -108h8l41 108l91 241h119l-235 -556q-27 -63 -64.5 -87t-98.5 -24z" />
    <glyph glyph-name="thorn" unicode="&#xfe;" horiz-adv-x="580" 
d="M161 -173h-108v843h108v-255h2q18 41 62 66t107 25q103 0 157 -69t54 -189t-55 -189t-158 -69q-62 0 -105.5 25t-61.5 62h-2v-250zM161 204q0 -122 135 -122q75 0 107.5 37.5t32.5 128.5t-32.5 128.5t-107.5 37.5q-135 0 -135 -122v-88z" />
    <glyph glyph-name="ydieresis" unicode="&#xff;" horiz-adv-x="546" 
d="M418 560h-108v124h108v-124zM235 560h-107v124h107v-124zM138 -170q-44 0 -75 9v88h68q33 0 47.5 8.5t26.5 35.5l19 42l-211 484h119l100 -241l45 -108h8l41 108l91 241h119l-235 -556q-27 -63 -64.5 -87t-98.5 -24z" />
    <glyph glyph-name="Amacron" unicode="&#x100;" horiz-adv-x="696" 
d="M486 756h-277v78h277v-78zM122 0h-113l261 670h155l261 -670h-117l-68 174h-311zM298 448l-70 -177h235l-70 177l-43 124h-8z" />
    <glyph glyph-name="amacron" unicode="&#x101;" horiz-adv-x="524" 
d="M397 586h-277v78h277v-78zM189 -10q-69 0 -113.5 35t-44.5 98q0 117 166 140l174 26v27q0 54 -26 75t-86 21q-59 0 -84.5 -21t-25.5 -70v-15h-104v10q0 84 60.5 137.5t159.5 53.5q101 0 155 -55.5t54 -149.5v-302h-100v78h-5q-54 -88 -180 -88zM136 131q0 -29 20.5 -42
t67.5 -13q62 0 104.5 29.5t42.5 98.5v9l-158 -24q-43 -6 -60 -18.5t-17 -39.5z" />
    <glyph glyph-name="Abreve" unicode="&#x102;" horiz-adv-x="696" 
d="M348 720q-60 0 -97 33t-37 87v11h78v-10q0 -29 12 -41t44 -12t44.5 12t12.5 41v10h77v-11q0 -54 -37 -87t-97 -33zM122 0h-113l261 670h155l261 -670h-117l-68 174h-311zM298 448l-70 -177h235l-70 177l-43 124h-8z" />
    <glyph glyph-name="abreve" unicode="&#x103;" horiz-adv-x="524" 
d="M259 550q-60 0 -97 33t-37 87v17h78v-16q0 -29 12 -41t44 -12t44.5 12t12.5 41v16h77v-17q0 -54 -37 -87t-97 -33zM189 -10q-69 0 -113.5 35t-44.5 98q0 117 166 140l174 26v27q0 54 -26 75t-86 21q-59 0 -84.5 -21t-25.5 -70v-15h-104v10q0 84 60.5 137.5t159.5 53.5
q101 0 155 -55.5t54 -149.5v-302h-100v78h-5q-54 -88 -180 -88zM136 131q0 -29 20.5 -42t67.5 -13q62 0 104.5 29.5t42.5 98.5v9l-158 -24q-43 -6 -60 -18.5t-17 -39.5z" />
    <glyph glyph-name="Aogonek" unicode="&#x104;" horiz-adv-x="696" 
d="M122 0h-113l261 670h155l261 -670h-1l-42 -55q-20 -23 -20 -39q0 -25 38 -25h51v-68h-75q-98 0 -98 68q0 35 45 87l29 32h-44l-68 174h-311zM298 448l-70 -177h235l-70 177l-43 124h-8z" />
    <glyph glyph-name="aogonek" unicode="&#x105;" horiz-adv-x="524" 
d="M189 -10q-69 0 -113.5 35t-44.5 98q0 117 166 140l174 26v27q0 54 -26 75t-86 21q-59 0 -84.5 -21t-25.5 -70v-15h-104v10q0 84 60.5 137.5t159.5 53.5q101 0 155 -55.5t54 -149.5v-302l-43 -55q-20 -23 -20 -39q0 -25 38 -25h52v-68h-76q-98 0 -98 68q0 37 46 87l28 32
h-27v78h-5q-54 -88 -180 -88zM136 131q0 -29 20.5 -42t67.5 -13q62 0 104.5 29.5t42.5 98.5v9l-158 -24q-43 -6 -60 -18.5t-17 -39.5z" />
    <glyph glyph-name="Cacute" unicode="&#x106;" horiz-adv-x="674" 
d="M410 730h-114v5l106 122h143v-5zM349 -10q-145 0 -229 93.5t-84 251.5t84 251.5t229 93.5q135 0 212 -70t77 -191v-6h-115v6q0 83 -41.5 120t-135.5 37q-105 0 -150 -55.5t-45 -185.5t45 -185.5t150 -55.5q94 0 135.5 37t41.5 120v6h115v-6q0 -121 -77 -191t-212 -70z
" />
    <glyph glyph-name="cacute" unicode="&#x107;" horiz-adv-x="534" 
d="M334 560h-113v5l108 125h143v-5zM276 -11q-114 0 -178.5 70.5t-64.5 188.5t65.5 188.5t181.5 70.5q98 0 159.5 -55.5t61.5 -144.5v-9h-107v6q0 55 -29.5 80.5t-91.5 25.5q-71 0 -102 -39.5t-31 -122.5t31 -122t102 -39q62 0 91.5 25t29.5 80v6h107v-9q0 -89 -62.5 -144.5
t-162.5 -55.5z" />
    <glyph glyph-name="Ccircumflex" unicode="&#x108;" horiz-adv-x="674" 
d="M283 730h-103v5l103 125h125l104 -125v-5h-103l-59 72h-8zM349 -10q-145 0 -229 93.5t-84 251.5t84 251.5t229 93.5q135 0 212 -70t77 -191v-6h-115v6q0 83 -41.5 120t-135.5 37q-105 0 -150 -55.5t-45 -185.5t45 -185.5t150 -55.5q94 0 135.5 37t41.5 120v6h115v-6
q0 -121 -77 -191t-212 -70z" />
    <glyph glyph-name="ccircumflex" unicode="&#x109;" horiz-adv-x="534" 
d="M208 560h-103v5l103 125h125l104 -125v-5h-103l-59 72h-8zM276 -11q-114 0 -178.5 70.5t-64.5 188.5t65.5 188.5t181.5 70.5q98 0 159.5 -55.5t61.5 -144.5v-9h-107v6q0 55 -29.5 80.5t-91.5 25.5q-71 0 -102 -39.5t-31 -122.5t31 -122t102 -39q62 0 91.5 25t29.5 80v6
h107v-9q0 -89 -62.5 -144.5t-162.5 -55.5z" />
    <glyph glyph-name="Cdotaccent" unicode="&#x10a;" horiz-adv-x="674" 
d="M400 730h-108v124h108v-124zM349 -10q-145 0 -229 93.5t-84 251.5t84 251.5t229 93.5q135 0 212 -70t77 -191v-6h-115v6q0 83 -41.5 120t-135.5 37q-105 0 -150 -55.5t-45 -185.5t45 -185.5t150 -55.5q94 0 135.5 37t41.5 120v6h115v-6q0 -121 -77 -191t-212 -70z" />
    <glyph glyph-name="cdotaccent" unicode="&#x10b;" horiz-adv-x="534" 
d="M325 560h-108v124h108v-124zM276 -11q-114 0 -178.5 70.5t-64.5 188.5t65.5 188.5t181.5 70.5q98 0 159.5 -55.5t61.5 -144.5v-9h-107v6q0 55 -29.5 80.5t-91.5 25.5q-71 0 -102 -39.5t-31 -122.5t31 -122t102 -39q62 0 91.5 25t29.5 80v6h107v-9q0 -89 -62.5 -144.5
t-162.5 -55.5z" />
    <glyph glyph-name="Ccaron" unicode="&#x10c;" horiz-adv-x="674" 
d="M408 860h103v-5l-103 -125h-125l-104 125v5h103l59 -72h8zM349 -10q-145 0 -229 93.5t-84 251.5t84 251.5t229 93.5q135 0 212 -70t77 -191v-6h-115v6q0 83 -41.5 120t-135.5 37q-105 0 -150 -55.5t-45 -185.5t45 -185.5t150 -55.5q94 0 135.5 37t41.5 120v6h115v-6
q0 -121 -77 -191t-212 -70z" />
    <glyph glyph-name="ccaron" unicode="&#x10d;" horiz-adv-x="534" 
d="M333 560h-125l-103 125v5h103l59 -72h8l59 72h103v-5zM276 -11q-114 0 -178.5 70.5t-64.5 188.5t65.5 188.5t181.5 70.5q98 0 159.5 -55.5t61.5 -144.5v-9h-107v6q0 55 -29.5 80.5t-91.5 25.5q-71 0 -102 -39.5t-31 -122.5t31 -122t102 -39q62 0 91.5 25t29.5 80v6h107
v-9q0 -89 -62.5 -144.5t-162.5 -55.5z" />
    <glyph glyph-name="Dcaron" unicode="&#x10e;" horiz-adv-x="666" 
d="M391 860h103v-5l-103 -125h-125l-104 125v5h103l59 -72h8zM294 0h-238v670h238q156 0 247.5 -90t91.5 -245t-91.5 -245t-247.5 -90zM294 573h-130v-476h130q120 0 172 54.5t52 183.5t-52 183.5t-172 54.5z" />
    <glyph glyph-name="dcaron" unicode="&#x10f;" horiz-adv-x="677" 
d="M252 -10q-105 0 -162 69.5t-57 189.5q0 119 56 188.5t157 69.5q62 0 103.5 -25t59.5 -62h3v250h107v-670h-99v82h-4q-39 -92 -164 -92zM596 419h-32v64h30q12 0 17 4.5t5 19.5v20h-54v143h124v-161q0 -90 -90 -90zM141 249q0 -91 31 -129t104 -38q136 0 136 122v89
q0 122 -136 122q-72 0 -103.5 -37.5t-31.5 -128.5z" />
    <glyph glyph-name="Dcroat" unicode="&#x110;" horiz-adv-x="727" 
d="M355 0h-238v286h-107v98h107v286h238q156 0 247.5 -90t91.5 -245t-91.5 -245t-247.5 -90zM415 286h-190v-189h130q120 0 172 54.5t52 183.5t-52 183.5t-172 54.5h-130v-189h190v-98z" />
    <glyph glyph-name="dcroat" unicode="&#x111;" horiz-adv-x="609" 
d="M250 -10q-104 0 -160.5 61.5t-56.5 167.5t56 167t157 61q58 0 101 -25t62 -63h3v157h-209v83h209v71h107v-71h80v-83h-80v-516h-99v82h-4q-20 -43 -63.5 -67.5t-102.5 -24.5zM141 219q0 -75 31.5 -106t104.5 -31q63 0 99 30.5t36 91.5v29q0 61 -35.5 91.5t-98.5 30.5
q-73 0 -105 -31t-32 -105z" />
    <glyph glyph-name="Emacron" unicode="&#x112;" horiz-adv-x="575" 
d="M434 756h-277v78h277v-78zM535 0h-479v670h479v-97h-371v-187h356v-98h-356v-191h371v-97z" />
    <glyph glyph-name="emacron" unicode="&#x113;" horiz-adv-x="539" 
d="M407 586h-277v78h277v-78zM274 -10q-119 0 -180 69.5t-61 189.5q0 116 65 187t175 71q102 0 165 -58t63 -158q0 -38 -6 -68h-361q3 -71 34.5 -104t106.5 -33q115 0 115 73v8h107v-9q0 -76 -61 -122t-162 -46zM271 416q-68 0 -99.5 -30.5t-36.5 -90.5h263q3 62 -29.5 91.5
t-97.5 29.5z" />
    <glyph glyph-name="Ebreve" unicode="&#x114;" horiz-adv-x="575" 
d="M296 720q-60 0 -97 33t-37 87v11h78v-10q0 -29 12 -41t44 -12t44.5 12t12.5 41v10h77v-11q0 -54 -37 -87t-97 -33zM535 0h-479v670h479v-97h-371v-187h356v-98h-356v-191h371v-97z" />
    <glyph glyph-name="ebreve" unicode="&#x115;" horiz-adv-x="539" 
d="M269 550q-60 0 -97 33t-37 87v17h78v-16q0 -29 12 -41t44 -12t44.5 12t12.5 41v16h77v-17q0 -54 -37 -87t-97 -33zM274 -10q-119 0 -180 69.5t-61 189.5q0 116 65 187t175 71q102 0 165 -58t63 -158q0 -38 -6 -68h-361q3 -71 34.5 -104t106.5 -33q115 0 115 73v8h107v-9
q0 -76 -61 -122t-162 -46zM271 416q-68 0 -99.5 -30.5t-36.5 -90.5h263q3 62 -29.5 91.5t-97.5 29.5z" />
    <glyph glyph-name="Edotaccent" unicode="&#x116;" horiz-adv-x="575" 
d="M350 730h-108v124h108v-124zM535 0h-479v670h479v-97h-371v-187h356v-98h-356v-191h371v-97z" />
    <glyph glyph-name="edotaccent" unicode="&#x117;" horiz-adv-x="539" 
d="M323 560h-108v124h108v-124zM274 -10q-119 0 -180 69.5t-61 189.5q0 116 65 187t175 71q102 0 165 -58t63 -158q0 -38 -6 -68h-361q3 -71 34.5 -104t106.5 -33q115 0 115 73v8h107v-9q0 -76 -61 -122t-162 -46zM271 416q-68 0 -99.5 -30.5t-36.5 -90.5h263
q3 62 -29.5 91.5t-97.5 29.5z" />
    <glyph glyph-name="Eogonek" unicode="&#x118;" horiz-adv-x="575" 
d="M535 0h-1l-42 -55q-20 -23 -20 -39q0 -25 38 -25h51v-68h-75q-98 0 -98 68q0 35 45 87l29 32h-406v670h479v-97h-371v-187h356v-98h-356v-191h371v-97z" />
    <glyph glyph-name="eogonek" unicode="&#x119;" horiz-adv-x="539" 
d="M365 -187h-75q-98 0 -98 68q0 35 45 87l20 22q-111 5 -167.5 74t-56.5 185t65 187t175 71q102 0 165 -58t63 -158q0 -38 -6 -68h-361q3 -71 34.5 -104t106.5 -33q115 0 115 73v8h107v-9q0 -64 -43.5 -107t-119.5 -56l-38 -50q-20 -23 -20 -39q0 -25 38 -25h51v-68z
M271 416q-68 0 -99.5 -30.5t-36.5 -90.5h263q3 62 -29.5 91.5t-97.5 29.5z" />
    <glyph glyph-name="Ecaron" unicode="&#x11a;" horiz-adv-x="575" 
d="M358 860h103v-5l-103 -125h-125l-104 125v5h103l59 -72h8zM535 0h-479v670h479v-97h-371v-187h356v-98h-356v-191h371v-97z" />
    <glyph glyph-name="ecaron" unicode="&#x11b;" horiz-adv-x="539" 
d="M331 560h-125l-103 125v5h103l59 -72h8l59 72h103v-5zM274 -10q-119 0 -180 69.5t-61 189.5q0 116 65 187t175 71q102 0 165 -58t63 -158q0 -38 -6 -68h-361q3 -71 34.5 -104t106.5 -33q115 0 115 73v8h107v-9q0 -76 -61 -122t-162 -46zM271 416q-68 0 -99.5 -30.5
t-36.5 -90.5h263q3 62 -29.5 91.5t-97.5 29.5z" />
    <glyph glyph-name="Gcircumflex" unicode="&#x11c;" horiz-adv-x="696" 
d="M286 730h-103v5l103 125h125l104 -125v-5h-103l-59 72h-8zM331 -10q-141 0 -219.5 92t-78.5 253q0 158 85.5 251.5t233.5 93.5q134 0 211 -67t77 -183v-7h-114v7q0 76 -42 111t-137 35q-106 0 -152.5 -55.5t-46.5 -185.5t48.5 -185.5t159.5 -55.5q95 0 138 32t43 109v16
h-209v93h313v-344h-99v105h-4q-20 -50 -74 -82.5t-133 -32.5z" />
    <glyph glyph-name="gcircumflex" unicode="&#x11d;" horiz-adv-x="572" 
d="M212 560h-103v5l103 125h125l104 -125v-5h-103l-59 72h-8zM246 47q-101 0 -157 62t-56 168q0 107 56.5 168.5t160.5 61.5q60 0 104 -24.5t62 -67.5h4v82h99v-461q0 -108 -60 -162t-171 -54q-107 0 -168 49t-61 138h107q0 -52 25.5 -71.5t99.5 -19.5q72 0 96.5 25t24.5 95
v99h-4q-18 -38 -61 -63t-101 -25zM141 277q0 -75 32 -106.5t104 -31.5q63 0 99 31t36 92v31q0 61 -36.5 91.5t-100.5 30.5q-71 0 -102.5 -31.5t-31.5 -106.5z" />
    <glyph glyph-name="Gbreve" unicode="&#x11e;" horiz-adv-x="696" 
d="M349 720q-60 0 -97 33t-37 87v11h78v-10q0 -29 12 -41t44 -12t44.5 12t12.5 41v10h77v-11q0 -54 -37 -87t-97 -33zM331 -10q-141 0 -219.5 92t-78.5 253q0 158 85.5 251.5t233.5 93.5q134 0 211 -67t77 -183v-7h-114v7q0 76 -42 111t-137 35q-106 0 -152.5 -55.5
t-46.5 -185.5t48.5 -185.5t159.5 -55.5q95 0 138 32t43 109v16h-209v93h313v-344h-99v105h-4q-20 -50 -74 -82.5t-133 -32.5z" />
    <glyph glyph-name="gbreve" unicode="&#x11f;" horiz-adv-x="572" 
d="M275 550q-60 0 -97 33t-37 87v17h78v-16q0 -29 12 -41t44 -12t44.5 12t12.5 41v16h77v-17q0 -54 -37 -87t-97 -33zM246 47q-101 0 -157 62t-56 168q0 107 56.5 168.5t160.5 61.5q60 0 104 -24.5t62 -67.5h4v82h99v-461q0 -108 -60 -162t-171 -54q-107 0 -168 49t-61 138
h107q0 -52 25.5 -71.5t99.5 -19.5q72 0 96.5 25t24.5 95v99h-4q-18 -38 -61 -63t-101 -25zM141 277q0 -75 32 -106.5t104 -31.5q63 0 99 31t36 92v31q0 61 -36.5 91.5t-100.5 30.5q-71 0 -102.5 -31.5t-31.5 -106.5z" />
    <glyph glyph-name="Gdotaccent" unicode="&#x120;" horiz-adv-x="696" 
d="M403 730h-108v124h108v-124zM331 -10q-141 0 -219.5 92t-78.5 253q0 158 85.5 251.5t233.5 93.5q134 0 211 -67t77 -183v-7h-114v7q0 76 -42 111t-137 35q-106 0 -152.5 -55.5t-46.5 -185.5t48.5 -185.5t159.5 -55.5q95 0 138 32t43 109v16h-209v93h313v-344h-99v105h-4
q-20 -50 -74 -82.5t-133 -32.5z" />
    <glyph glyph-name="gdotaccent" unicode="&#x121;" horiz-adv-x="572" 
d="M329 560h-108v124h108v-124zM246 47q-101 0 -157 62t-56 168q0 107 56.5 168.5t160.5 61.5q60 0 104 -24.5t62 -67.5h4v82h99v-461q0 -108 -60 -162t-171 -54q-107 0 -168 49t-61 138h107q0 -52 25.5 -71.5t99.5 -19.5q72 0 96.5 25t24.5 95v99h-4q-18 -38 -61 -63
t-101 -25zM141 277q0 -75 32 -106.5t104 -31.5q63 0 99 31t36 92v31q0 61 -36.5 91.5t-100.5 30.5q-71 0 -102.5 -31.5t-31.5 -106.5z" />
    <glyph glyph-name="Gcommaaccent" unicode="&#x122;" horiz-adv-x="696" 
d="M331 -10q-141 0 -219.5 92t-78.5 253q0 158 85.5 251.5t233.5 93.5q134 0 211 -67t77 -183v-7h-114v7q0 76 -42 111t-137 35q-106 0 -152.5 -55.5t-46.5 -185.5t48.5 -185.5t159.5 -55.5q95 0 138 32t43 109v16h-209v93h313v-344h-99v105h-4q-20 -50 -74 -82.5
t-133 -32.5zM341 -200h-98v5l80 125h132v-5z" />
    <glyph glyph-name="gcommaaccent" unicode="&#x123;" horiz-adv-x="572" 
d="M310 690h98v-5l-80 -125h-132v5zM246 47q-101 0 -157 62t-56 168q0 107 56.5 168.5t160.5 61.5q60 0 104 -24.5t62 -67.5h4v82h99v-461q0 -108 -60 -162t-171 -54q-107 0 -168 49t-61 138h107q0 -52 25.5 -71.5t99.5 -19.5q72 0 96.5 25t24.5 95v99h-4q-18 -38 -61 -63
t-101 -25zM141 277q0 -75 32 -106.5t104 -31.5q63 0 99 31t36 92v31q0 61 -36.5 91.5t-100.5 30.5q-71 0 -102.5 -31.5t-31.5 -106.5z" />
    <glyph glyph-name="Hcircumflex" unicode="&#x124;" horiz-adv-x="665" 
d="M270 730h-103v5l103 125h125l104 -125v-5h-103l-59 72h-8zM164 0h-108v670h108v-284h338v284h108v-670h-108v289h-338v-289z" />
    <glyph glyph-name="hcircumflex" unicode="&#x125;" horiz-adv-x="569" 
d="M44 730h-103v5l103 125h125l104 -125v-5h-103l-59 72h-8zM161 0h-108v670h108v-256h4q20 39 62 66t104 27q93 0 139 -53.5t46 -140.5v-313h-108v288q0 68 -26 97t-93 29t-97.5 -29.5t-30.5 -98.5v-286z" />
    <glyph glyph-name="Hbar" unicode="&#x126;" horiz-adv-x="722" 
d="M192 0h-108v489h-86v97h86v84h108v-84h338v84h108v-84h86v-97h-86v-489h-108v289h-338v-289zM192 386h338v103h-338v-103z" />
    <glyph glyph-name="hbar" unicode="&#x127;" horiz-adv-x="604" 
d="M196 0h-107v516h-79v83h79v71h107v-71h210v-83h-210v-162h5q20 39 61.5 66t104.5 27q93 0 138.5 -53.5t45.5 -140.5v-253h-107v228q0 68 -26.5 97t-92.5 29q-68 0 -98.5 -29.5t-30.5 -98.5v-226z" />
    <glyph glyph-name="Itilde" unicode="&#x128;" horiz-adv-x="220" 
d="M29 739h-74v36q0 91 73 91q27 0 69 -24l37 -20q22 -13 38 -13q19 0 19 25v25h73v-40q0 -87 -71 -87q-30 0 -74 25l-39 21q-21 12 -33 12q-18 0 -18 -24v-27zM164 0h-108v670h108v-670z" />
    <glyph glyph-name="itilde" unicode="&#x129;" horiz-adv-x="200" 
d="M19 569h-74v36q0 91 73 91q27 0 69 -24l37 -20q22 -13 38 -13q19 0 19 25v25h73v-40q0 -87 -71 -87q-30 0 -74 25l-39 21q-21 12 -33 12q-18 0 -18 -24v-27zM154 0h-108v500h108v-500z" />
    <glyph glyph-name="Imacron" unicode="&#x12a;" horiz-adv-x="220" 
d="M248 756h-277v78h277v-78zM164 0h-108v670h108v-670z" />
    <glyph glyph-name="imacron" unicode="&#x12b;" horiz-adv-x="200" 
d="M238 586h-277v78h277v-78zM154 0h-108v500h108v-500z" />
    <glyph glyph-name="Ibreve" unicode="&#x12c;" horiz-adv-x="220" 
d="M110 720q-60 0 -97 33t-37 87v11h78v-10q0 -29 12 -41t44 -12t44.5 12t12.5 41v10h77v-11q0 -54 -37 -87t-97 -33zM164 0h-108v670h108v-670z" />
    <glyph glyph-name="ibreve" unicode="&#x12d;" horiz-adv-x="200" 
d="M100 550q-60 0 -97 33t-37 87v17h78v-16q0 -29 12 -41t44 -12t44.5 12t12.5 41v16h77v-17q0 -54 -37 -87t-97 -33zM154 0h-108v500h108v-500z" />
    <glyph glyph-name="Iogonek" unicode="&#x12e;" horiz-adv-x="220" 
d="M164 0h-1l-42 -55q-20 -23 -20 -39q0 -25 38 -25h51v-68h-75q-98 0 -98 68q0 35 45 87l29 32h-35v670h108v-670z" />
    <glyph glyph-name="iogonek" unicode="&#x12f;" horiz-adv-x="201" 
d="M154 560h-107l-1 110h108v-110zM155 0h-1l-42 -55q-20 -23 -20 -39q0 -25 38 -25h51v-68h-75q-98 0 -98 68q0 35 45 87l29 32h-35v500h108v-500z" />
    <glyph glyph-name="Idotaccent" unicode="&#x130;" horiz-adv-x="220" 
d="M164 730h-108v124h108v-124zM164 0h-108v670h108v-670z" />
    <glyph glyph-name="dotlessi" unicode="&#x131;" horiz-adv-x="200" 
d="M154 0h-108v500h108v-500z" />
    <glyph glyph-name="IJ" unicode="&#x132;" horiz-adv-x="767" 
d="M164 0h-108v670h108v-670zM470 -10q-252 0 -252 254v28h114v-36q0 -80 26.5 -111t108.5 -31t108 31t26 111v434h115v-426q0 -119 -60 -186.5t-186 -67.5z" />
    <glyph glyph-name="ij" unicode="&#x133;" horiz-adv-x="435" 
d="M154 560h-107l-1 110h108v-110zM382 560h-108v110h108v-110zM155 0h-108v500h108v-500zM174 -170v98h39q38 0 49.5 9t11.5 40v520h108v-498q0 -94 -45 -131.5t-132 -37.5h-31z" />
    <glyph glyph-name="Jcircumflex" unicode="&#x134;" horiz-adv-x="562" 
d="M390 730h-103v5l103 125h125l104 -125v-5h-103l-59 72h-8zM265 -10q-252 0 -252 254v28h114v-36q0 -80 26.5 -111t108.5 -31t108 31t26 111v434h115v-426q0 -119 -60 -186.5t-186 -67.5z" />
    <glyph glyph-name="jcircumflex" unicode="&#x135;" horiz-adv-x="216" 
d="M45 560h-103v5l103 125h125l104 -125v-5h-103l-59 72h-8zM-45 -170v98h39q38 0 49.5 9t11.5 40v520h108v-498q0 -94 -45 -131.5t-132 -37.5h-31z" />
    <glyph glyph-name="Kcommaaccent" unicode="&#x136;" horiz-adv-x="630" 
d="M164 0h-108v670h108v-286h155l176 286h123l-208 -332l207 -338h-124l-172 280h-157v-280zM277 -200h-98v5l80 125h132v-5z" />
    <glyph glyph-name="kcommaaccent" unicode="&#x137;" horiz-adv-x="525" 
d="M161 0h-108v670h108v-370h98l133 197h127l-173 -235l170 -262h-126l-130 203h-99v-203zM241 -200h-98v5l80 125h132v-5z" />
    <glyph glyph-name="Lacute" unicode="&#x139;" horiz-adv-x="539" 
d="M169 730h-114v5l106 122h143v-5zM521 0h-465v670h108v-573h357v-97z" />
    <glyph glyph-name="lacute" unicode="&#x13a;" horiz-adv-x="214" 
d="M166 733h-113v5l108 125h143v-5zM161 0h-108v670h108v-670z" />
    <glyph glyph-name="Lcommaaccent" unicode="&#x13b;" horiz-adv-x="539" 
d="M521 0h-465v670h108v-573h357v-97zM234 -200h-98v5l80 125h132v-5z" />
    <glyph glyph-name="lcommaaccent" unicode="&#x13c;" horiz-adv-x="214" 
d="M161 0h-108v670h108v-670zM53 -200h-98v5l80 125h132v-5z" />
    <glyph glyph-name="Lcaron" unicode="&#x13d;" horiz-adv-x="539" 
d="M521 0h-465v670h108v-573h357v-97zM370 419h-32v64h30q12 0 17 4.5t5 19.5v20h-54v143h124v-161q0 -90 -90 -90z" />
    <glyph glyph-name="lcaron" unicode="&#x13e;" horiz-adv-x="319" 
d="M161 0h-108v670h108v-670zM237 419h-32v64h30q13 0 17.5 4.5t4.5 19.5v20h-54v143h124v-161q0 -90 -90 -90z" />
    <glyph glyph-name="Ldot" unicode="&#x13f;" horiz-adv-x="539" 
d="M521 0h-465v670h108v-573h357v-97zM468 273h-107v124h107v-124z" />
    <glyph glyph-name="ldot" unicode="&#x140;" horiz-adv-x="301" 
d="M161 0h-108v670h108v-670zM311 273h-107v124h107v-124z" />
    <glyph glyph-name="Lslash" unicode="&#x141;" horiz-adv-x="589" 
d="M571 0h-465v285l-96 -39v102l96 39v283h108v-238l190 78v-102l-190 -78v-233h357v-97z" />
    <glyph glyph-name="lslash" unicode="&#x142;" horiz-adv-x="357" 
d="M233 0h-108v328l-85 -44l-33 65l118 61v260h108v-204l85 44l32 -64l-117 -61v-385z" />
    <glyph glyph-name="Nacute" unicode="&#x143;" horiz-adv-x="668" 
d="M398 730h-114v5l106 122h143v-5zM164 0h-108v670h116l254 -384l71 -107h8v491h108v-670h-116l-253 378l-73 109h-7v-487z" />
    <glyph glyph-name="nacute" unicode="&#x144;" horiz-adv-x="566" 
d="M347 560h-113v5l108 125h143v-5zM161 0h-108v497h99v-93h4q45 103 173 103q93 0 140 -53t47 -142v-312h-108v288q0 68 -26 97t-93 29t-97.5 -29t-30.5 -98v-287z" />
    <glyph glyph-name="Ncommaaccent" unicode="&#x145;" horiz-adv-x="668" 
d="M164 0h-108v670h116l254 -384l71 -107h8v491h108v-670h-116l-253 378l-73 109h-7v-487zM280 -200h-98v5l80 125h132v-5z" />
    <glyph glyph-name="ncommaaccent" unicode="&#x146;" horiz-adv-x="566" 
d="M161 0h-108v497h99v-93h4q45 103 173 103q93 0 140 -53t47 -142v-312h-108v288q0 68 -26 97t-93 29t-97.5 -29t-30.5 -98v-287zM230 -200h-98v5l80 125h132v-5z" />
    <glyph glyph-name="Ncaron" unicode="&#x147;" horiz-adv-x="668" 
d="M396 860h103v-5l-103 -125h-125l-104 125v5h103l59 -72h8zM164 0h-108v670h116l254 -384l71 -107h8v491h108v-670h-116l-253 378l-73 109h-7v-487z" />
    <glyph glyph-name="ncaron" unicode="&#x148;" horiz-adv-x="566" 
d="M347 560h-125l-103 125v5h103l59 -72h8l59 72h103v-5zM161 0h-108v497h99v-93h4q45 103 173 103q93 0 140 -53t47 -142v-312h-108v288q0 68 -26 97t-93 29t-97.5 -29t-30.5 -98v-287z" />
    <glyph glyph-name="Eng" unicode="&#x14a;" horiz-adv-x="668" 
d="M436 -170h-31v98h38q38 0 50 9t12 37v24l-334 489h-7v-487h-108v670h116l325 -488h8v488h108v-671q0 -94 -45 -131.5t-132 -37.5z" />
    <glyph glyph-name="eng" unicode="&#x14b;" horiz-adv-x="566" 
d="M161 0h-108v497h99v-93h4q45 103 173 103q93 0 140 -53t47 -142v-313q0 -94 -45 -131.5t-132 -37.5h-31v98h38q39 0 50.5 9t11.5 40v311q0 68 -26 97t-93 29t-97.5 -29t-30.5 -98v-287z" />
    <glyph glyph-name="Omacron" unicode="&#x14c;" horiz-adv-x="697" 
d="M487 756h-277v78h277v-78zM349 -10q-143 0 -228 94t-85 251t85 251t228 94q142 0 227 -94t85 -251t-85 -251t-227 -94zM349 94q105 0 151 55.5t46 185.5t-46 185.5t-151 55.5t-151.5 -55.5t-46.5 -185.5t46.5 -185.5t151.5 -55.5z" />
    <glyph glyph-name="omacron" unicode="&#x14d;" horiz-adv-x="558" 
d="M417 586h-277v78h277v-78zM281 -10q-114 0 -181 71t-67 188q0 116 67 187t181 71q113 0 178.5 -70.5t65.5 -187.5t-65.5 -188t-178.5 -71zM281 86q77 0 108.5 38.5t31.5 124.5q0 85 -32 123.5t-108 38.5q-77 0 -109.5 -38.5t-32.5 -123.5q0 -86 32.5 -124.5t109.5 -38.5z
" />
    <glyph glyph-name="Obreve" unicode="&#x14e;" horiz-adv-x="697" 
d="M349 720q-60 0 -97 33t-37 87v11h78v-10q0 -29 12 -41t44 -12t44.5 12t12.5 41v10h77v-11q0 -54 -37 -87t-97 -33zM349 -10q-143 0 -228 94t-85 251t85 251t228 94q142 0 227 -94t85 -251t-85 -251t-227 -94zM349 94q105 0 151 55.5t46 185.5t-46 185.5t-151 55.5
t-151.5 -55.5t-46.5 -185.5t46.5 -185.5t151.5 -55.5z" />
    <glyph glyph-name="obreve" unicode="&#x14f;" horiz-adv-x="558" 
d="M279 550q-60 0 -97 33t-37 87v17h78v-16q0 -29 12 -41t44 -12t44.5 12t12.5 41v16h77v-17q0 -54 -37 -87t-97 -33zM281 -10q-114 0 -181 71t-67 188q0 116 67 187t181 71q113 0 178.5 -70.5t65.5 -187.5t-65.5 -188t-178.5 -71zM281 86q77 0 108.5 38.5t31.5 124.5
q0 85 -32 123.5t-108 38.5q-77 0 -109.5 -38.5t-32.5 -123.5q0 -86 32.5 -124.5t109.5 -38.5z" />
    <glyph glyph-name="Ohungarumlaut" unicode="&#x150;" horiz-adv-x="697" 
d="M470 730h-92v5l72 122h123v-5zM298 730h-92v5l72 122h123v-5zM349 -10q-143 0 -228 94t-85 251t85 251t228 94q142 0 227 -94t85 -251t-85 -251t-227 -94zM349 94q105 0 151 55.5t46 185.5t-46 185.5t-151 55.5t-151.5 -55.5t-46.5 -185.5t46.5 -185.5t151.5 -55.5z" />
    <glyph glyph-name="ohungarumlaut" unicode="&#x151;" horiz-adv-x="558" 
d="M225 560h-92v5l74 125h123v-5zM397 560h-91v5l73 125h123v-5zM281 -10q-114 0 -181 71t-67 188q0 116 67 187t181 71q113 0 178.5 -70.5t65.5 -187.5t-65.5 -188t-178.5 -71zM281 86q77 0 108.5 38.5t31.5 124.5q0 85 -32 123.5t-108 38.5q-77 0 -109.5 -38.5
t-32.5 -123.5q0 -86 32.5 -124.5t109.5 -38.5z" />
    <glyph glyph-name="OE" unicode="&#x152;" horiz-adv-x="1008" 
d="M968 0h-589q-160 0 -252.5 90t-92.5 245t92.5 245t252.5 90h589v-97h-371v-187h356v-98h-356v-191h371v-97zM379 97h110v476h-110q-121 0 -175.5 -55t-54.5 -183t54.5 -183t175.5 -55z" />
    <glyph glyph-name="oe" unicode="&#x153;" horiz-adv-x="930" 
d="M281 -10q-114 0 -181 71t-67 188q0 116 67 187t181 71q126 0 193 -88q67 88 190 88q102 0 165 -58t63 -158q0 -38 -6 -68h-361q3 -71 34.5 -104t106.5 -33q115 0 115 73v8h107v-9q0 -76 -61 -122t-162 -46q-132 0 -193 85q-66 -85 -191 -85zM662 416q-68 0 -99.5 -30.5
t-36.5 -90.5h263q3 62 -29.5 91.5t-97.5 29.5zM281 86q77 0 108.5 38.5t31.5 124.5q0 85 -32 123.5t-108 38.5q-77 0 -109.5 -38.5t-32.5 -123.5q0 -86 32.5 -124.5t109.5 -38.5z" />
    <glyph glyph-name="Racute" unicode="&#x154;" horiz-adv-x="618" 
d="M359 730h-114v5l106 122h143v-5zM164 0h-108v670h288q112 0 176.5 -53t64.5 -147q0 -83 -48.5 -131t-137.5 -53v-8q64 -21 103 -92l100 -186h-125l-95 173q-25 47 -53.5 66t-85.5 19h-79v-258zM164 573v-226h193q65 0 92.5 26t27.5 87q0 60 -27.5 86.5t-92.5 26.5h-193z
" />
    <glyph glyph-name="racute" unicode="&#x155;" horiz-adv-x="463" 
d="M310 560h-113v5l108 125h143v-5zM161 0h-108v500h99v-79h5q16 38 51.5 62t87.5 24q74 0 109 -47t35 -122v-33h-108v20q0 50 -17.5 70t-64.5 20q-49 0 -69 -20.5t-20 -70.5v-324z" />
    <glyph glyph-name="Rcommaaccent" unicode="&#x156;" horiz-adv-x="618" 
d="M164 0h-108v670h288q112 0 176.5 -53t64.5 -147q0 -83 -48.5 -131t-137.5 -53v-8q64 -21 103 -92l100 -186h-125l-95 173q-25 47 -53.5 66t-85.5 19h-79v-258zM164 573v-226h193q65 0 92.5 26t27.5 87q0 60 -27.5 86.5t-92.5 26.5h-193zM242 -200h-98v5l80 125h132v-5z
" />
    <glyph glyph-name="rcommaaccent" unicode="&#x157;" horiz-adv-x="463" 
d="M161 0h-108v500h99v-79h5q16 38 51.5 62t87.5 24q74 0 109 -47t35 -122v-33h-108v20q0 50 -17.5 70t-64.5 20q-49 0 -69 -20.5t-20 -70.5v-324zM55 -200h-98v5l80 125h132v-5z" />
    <glyph glyph-name="Rcaron" unicode="&#x158;" horiz-adv-x="618" 
d="M357 860h103v-5l-103 -125h-125l-104 125v5h103l59 -72h8zM164 0h-108v670h288q112 0 176.5 -53t64.5 -147q0 -83 -48.5 -131t-137.5 -53v-8q64 -21 103 -92l100 -186h-125l-95 173q-25 47 -53.5 66t-85.5 19h-79v-258zM164 573v-226h193q65 0 92.5 26t27.5 87
q0 60 -27.5 86.5t-92.5 26.5h-193z" />
    <glyph glyph-name="rcaron" unicode="&#x159;" horiz-adv-x="463" 
d="M309 560h-125l-103 125v5h103l59 -72h8l59 72h103v-5zM161 0h-108v500h99v-79h5q16 38 51.5 62t87.5 24q74 0 109 -47t35 -122v-33h-108v20q0 50 -17.5 70t-64.5 20q-49 0 -69 -20.5t-20 -70.5v-324z" />
    <glyph glyph-name="Sacute" unicode="&#x15a;" horiz-adv-x="604" 
d="M366 730h-114v5l106 122h143v-5zM327 -10q-140 0 -208.5 58.5t-68.5 159.5v17h106v-11q0 -66 37 -95.5t138 -29.5q73 0 104 21t31 68t-23.5 68t-99.5 36l-114 23q-177 34 -177 184q0 81 64 136t186 55q131 0 195 -63t64 -160v-12h-106v11q0 64 -34.5 94.5t-121.5 30.5
q-73 0 -106 -21t-33 -66t24 -64t95 -34l114 -24q181 -37 181 -190q0 -84 -62.5 -138t-184.5 -54z" />
    <glyph glyph-name="sacute" unicode="&#x15b;" horiz-adv-x="495" 
d="M310 560h-113v5l108 125h143v-5zM262 -10q-221 0 -221 178v2h104v-18q0 -42 24.5 -58t94.5 -16q57 0 76 12.5t19 42.5q0 29 -20 42t-77 23l-77 13q-71 13 -108 47t-37 99q0 69 54 109.5t150 40.5q91 0 148 -44.5t57 -126.5v-9h-103v12q0 39 -21.5 59t-83.5 20
q-56 0 -77 -14t-21 -45q0 -28 17.5 -40t70.5 -23l84 -16q74 -15 110 -49.5t36 -94.5q0 -69 -52.5 -107.5t-146.5 -38.5z" />
    <glyph glyph-name="Scircumflex" unicode="&#x15c;" horiz-adv-x="604" 
d="M239 730h-103v5l103 125h125l104 -125v-5h-103l-59 72h-8zM327 -10q-140 0 -208.5 58.5t-68.5 159.5v17h106v-11q0 -66 37 -95.5t138 -29.5q73 0 104 21t31 68t-23.5 68t-99.5 36l-114 23q-177 34 -177 184q0 81 64 136t186 55q131 0 195 -63t64 -160v-12h-106v11
q0 64 -34.5 94.5t-121.5 30.5q-73 0 -106 -21t-33 -66t24 -64t95 -34l114 -24q181 -37 181 -190q0 -84 -62.5 -138t-184.5 -54z" />
    <glyph glyph-name="scircumflex" unicode="&#x15d;" horiz-adv-x="495" 
d="M185 560h-103v5l103 125h125l104 -125v-5h-103l-59 72h-8zM262 -10q-221 0 -221 178v2h104v-18q0 -42 24.5 -58t94.5 -16q57 0 76 12.5t19 42.5q0 29 -20 42t-77 23l-77 13q-71 13 -108 47t-37 99q0 69 54 109.5t150 40.5q91 0 148 -44.5t57 -126.5v-9h-103v12
q0 39 -21.5 59t-83.5 20q-56 0 -77 -14t-21 -45q0 -28 17.5 -40t70.5 -23l84 -16q74 -15 110 -49.5t36 -94.5q0 -69 -52.5 -107.5t-146.5 -38.5z" />
    <glyph glyph-name="Scedilla" unicode="&#x15e;" horiz-adv-x="604" 
d="M334 -216h-83v61h80q35 0 35 24q0 15 -8.5 20t-26.5 5h-60v99q-111 12 -166 68.5t-55 146.5v17h106v-11q0 -66 37 -95.5t138 -29.5q73 0 104 21t31 68t-23.5 68t-99.5 36l-114 23q-177 34 -177 184q0 81 64 136t186 55q131 0 195 -63t64 -160v-12h-106v11
q0 64 -34.5 94.5t-121.5 30.5q-73 0 -106 -21t-33 -66t24 -64t95 -34l114 -24q181 -37 181 -190q0 -84 -62 -138t-181 -54v-41h6q45 0 70.5 -21.5t25.5 -59.5q0 -39 -26.5 -61.5t-72.5 -22.5z" />
    <glyph glyph-name="scedilla" unicode="&#x15f;" horiz-adv-x="495" 
d="M279 -216h-83v61h80q35 0 35 24q0 15 -8.5 20t-26.5 5h-60v98q-175 18 -175 176v2h104v-18q0 -42 24.5 -58t94.5 -16q57 0 76 12.5t19 42.5q0 29 -20 42t-77 23l-77 13q-71 13 -108 47t-37 99q0 69 54 109.5t150 40.5q91 0 148 -44.5t57 -126.5v-9h-103v12q0 39 -21.5 59
t-83.5 20q-56 0 -77 -14t-21 -45q0 -28 17.5 -40t70.5 -23l84 -16q74 -15 110 -49.5t36 -94.5q0 -67 -48.5 -105t-136.5 -41v-41h6q45 0 70.5 -21.5t25.5 -59.5q0 -39 -26.5 -61.5t-72.5 -22.5z" />
    <glyph glyph-name="Scaron" unicode="&#x160;" horiz-adv-x="604" 
d="M364 860h103v-5l-103 -125h-125l-104 125v5h103l59 -72h8zM327 -10q-140 0 -208.5 58.5t-68.5 159.5v17h106v-11q0 -66 37 -95.5t138 -29.5q73 0 104 21t31 68t-23.5 68t-99.5 36l-114 23q-177 34 -177 184q0 81 64 136t186 55q131 0 195 -63t64 -160v-12h-106v11
q0 64 -34.5 94.5t-121.5 30.5q-73 0 -106 -21t-33 -66t24 -64t95 -34l114 -24q181 -37 181 -190q0 -84 -62.5 -138t-184.5 -54z" />
    <glyph glyph-name="scaron" unicode="&#x161;" horiz-adv-x="495" 
d="M310 560h-125l-103 125v5h103l59 -72h8l59 72h103v-5zM262 -10q-221 0 -221 178v2h104v-18q0 -42 24.5 -58t94.5 -16q57 0 76 12.5t19 42.5q0 29 -20 42t-77 23l-77 13q-71 13 -108 47t-37 99q0 69 54 109.5t150 40.5q91 0 148 -44.5t57 -126.5v-9h-103v12q0 39 -21.5 59
t-83.5 20q-56 0 -77 -14t-21 -45q0 -28 17.5 -40t70.5 -23l84 -16q74 -15 110 -49.5t36 -94.5q0 -69 -52.5 -107.5t-146.5 -38.5z" />
    <glyph glyph-name="Tcedilla" unicode="&#x162;" horiz-adv-x="575" 
d="M341 0h-25v-51h6q45 0 70.5 -21.5t25.5 -59.5q0 -39 -26.5 -61.5t-72.5 -22.5h-83v61h80q35 0 35 24q0 15 -8.5 20t-26.5 5h-60v106h-22v573h-228v97h563v-97h-228v-573z" />
    <glyph glyph-name="tcedilla" unicode="&#x163;" horiz-adv-x="371" 
d="M261 0q-26 0 -47 3v-54h6q45 0 70.5 -21.5t25.5 -59.5q0 -39 -26.5 -61.5t-72.5 -22.5h-83v61h80q35 0 35 24q0 15 -8.5 20t-26.5 5h-60v109h60q-61 8 -91.5 44t-30.5 106v254h-83v90h85l23 123h83v-123h150v-90h-150v-249q0 -38 18.5 -49.5t70.5 -11.5h61v-88
q-38 -9 -89 -9z" />
    <glyph glyph-name="Tcaron" unicode="&#x164;" horiz-adv-x="575" 
d="M350 860h103v-5l-103 -125h-125l-104 125v5h103l59 -72h8zM341 0h-107v573h-228v97h563v-97h-228v-573z" />
    <glyph glyph-name="tcaron" unicode="&#x165;" horiz-adv-x="371" 
d="M272 533h-32v64h30q12 0 17 4.5t5 19.5v20h-54v143h124v-161q0 -90 -90 -90zM261 0q-86 0 -127.5 35.5t-41.5 117.5v254h-83v90h85l23 123h83v-123h150v-90h-150v-249q0 -38 18.5 -49.5t70.5 -11.5h61v-88q-38 -9 -89 -9z" />
    <glyph glyph-name="Tbar" unicode="&#x166;" horiz-adv-x="575" 
d="M341 0h-107v301h-174v97h174v175h-228v97h563v-97h-228v-175h174v-97h-174v-301z" />
    <glyph glyph-name="tbar" unicode="&#x167;" horiz-adv-x="371" 
d="M9 221v90h83v96h-83v90h85l23 123h83v-123h150v-90h-150v-96h150v-90h-150v-63q0 -38 18.5 -49.5t70.5 -11.5h61v-88q-38 -9 -88 -9q-86 0 -128 35.5t-42 117.5v68h-83z" />
    <glyph glyph-name="Utilde" unicode="&#x168;" horiz-adv-x="678" 
d="M258 739h-74v36q0 91 73 91q27 0 69 -24l37 -20q22 -13 38 -13q19 0 19 25v25h73v-40q0 -87 -71 -87q-30 0 -74 25l-39 21q-21 12 -33 12q-18 0 -18 -24v-27zM339 -10q-136 0 -210.5 71.5t-74.5 200.5v408h107v-408q0 -91 40 -129.5t138 -38.5t137.5 38.5t39.5 129.5v408
h108v-408q0 -129 -75 -200.5t-210 -71.5z" />
    <glyph glyph-name="utilde" unicode="&#x169;" horiz-adv-x="569" 
d="M202 569h-74v36q0 91 73 91q27 0 69 -24l37 -20q22 -13 38 -13q19 0 19 25v25h73v-40q0 -87 -71 -87q-30 0 -74 25l-39 21q-21 12 -33 12q-18 0 -18 -24v-27zM238 -10q-93 0 -140.5 55t-47.5 145v307h108v-288q0 -67 28 -96.5t92 -29.5q65 0 97.5 31.5t32.5 102.5v280
h108v-497h-100v99h-4q-46 -109 -174 -109z" />
    <glyph glyph-name="Umacron" unicode="&#x16a;" horiz-adv-x="678" 
d="M477 756h-277v78h277v-78zM339 -10q-136 0 -210.5 71.5t-74.5 200.5v408h107v-408q0 -91 40 -129.5t138 -38.5t137.5 38.5t39.5 129.5v408h108v-408q0 -129 -75 -200.5t-210 -71.5z" />
    <glyph glyph-name="umacron" unicode="&#x16b;" horiz-adv-x="569" 
d="M421 586h-277v78h277v-78zM238 -10q-93 0 -140.5 55t-47.5 145v307h108v-288q0 -67 28 -96.5t92 -29.5q65 0 97.5 31.5t32.5 102.5v280h108v-497h-100v99h-4q-46 -109 -174 -109z" />
    <glyph glyph-name="Ubreve" unicode="&#x16c;" horiz-adv-x="678" 
d="M339 720q-60 0 -97 33t-37 87v11h78v-10q0 -29 12 -41t44 -12t44.5 12t12.5 41v10h77v-11q0 -54 -37 -87t-97 -33zM339 -10q-136 0 -210.5 71.5t-74.5 200.5v408h107v-408q0 -91 40 -129.5t138 -38.5t137.5 38.5t39.5 129.5v408h108v-408q0 -129 -75 -200.5t-210 -71.5z
" />
    <glyph glyph-name="ubreve" unicode="&#x16d;" horiz-adv-x="569" 
d="M283 550q-60 0 -97 33t-37 87v17h78v-16q0 -29 12 -41t44 -12t44.5 12t12.5 41v16h77v-17q0 -54 -37 -87t-97 -33zM238 -10q-93 0 -140.5 55t-47.5 145v307h108v-288q0 -67 28 -96.5t92 -29.5q65 0 97.5 31.5t32.5 102.5v280h108v-497h-100v99h-4q-46 -109 -174 -109z
" />
    <glyph glyph-name="Uring" unicode="&#x16e;" horiz-adv-x="678" 
d="M339 714q-44 0 -70.5 24t-26.5 64t26.5 64t70.5 24t70.5 -24t26.5 -64t-26.5 -64t-70.5 -24zM339 762q25 0 35.5 9t10.5 31t-10.5 31t-35.5 9q-26 0 -36.5 -9t-10.5 -31t10.5 -31t36.5 -9zM339 -10q-136 0 -210.5 71.5t-74.5 200.5v408h107v-408q0 -91 40 -129.5
t138 -38.5t137.5 38.5t39.5 129.5v408h108v-408q0 -129 -75 -200.5t-210 -71.5z" />
    <glyph glyph-name="uring" unicode="&#x16f;" horiz-adv-x="569" 
d="M283 544q-44 0 -70.5 24t-26.5 64t26.5 64t70.5 24t70.5 -24t26.5 -64t-26.5 -64t-70.5 -24zM283 592q25 0 35.5 9t10.5 31t-10.5 31t-35.5 9q-26 0 -36.5 -9t-10.5 -31t10.5 -31t36.5 -9zM238 -10q-93 0 -140.5 55t-47.5 145v307h108v-288q0 -67 28 -96.5t92 -29.5
q65 0 97.5 31.5t32.5 102.5v280h108v-497h-100v99h-4q-46 -109 -174 -109z" />
    <glyph glyph-name="Uhungarumlaut" unicode="&#x170;" horiz-adv-x="678" 
d="M460 730h-92v5l72 122h123v-5zM288 730h-92v5l72 122h123v-5zM339 -10q-136 0 -210.5 71.5t-74.5 200.5v408h107v-408q0 -91 40 -129.5t138 -38.5t137.5 38.5t39.5 129.5v408h108v-408q0 -129 -75 -200.5t-210 -71.5z" />
    <glyph glyph-name="uhungarumlaut" unicode="&#x171;" horiz-adv-x="569" 
d="M228 560h-92v5l74 125h123v-5zM400 560h-91v5l73 125h123v-5zM238 -10q-93 0 -140.5 55t-47.5 145v307h108v-288q0 -67 28 -96.5t92 -29.5q65 0 97.5 31.5t32.5 102.5v280h108v-497h-100v99h-4q-46 -109 -174 -109z" />
    <glyph glyph-name="Uogonek" unicode="&#x172;" horiz-adv-x="678" 
d="M427 -187h-75q-98 0 -98 68q0 35 45 87l20 22q-126 5 -195.5 76.5t-69.5 195.5v408h107v-408q0 -91 40 -129.5t138 -38.5t137.5 38.5t39.5 129.5v408h108v-408q0 -114 -59.5 -184t-169.5 -84l-37 -49q-20 -23 -20 -39q0 -25 38 -25h51v-68z" />
    <glyph glyph-name="uogonek" unicode="&#x173;" horiz-adv-x="569" 
d="M238 -10q-93 0 -140.5 55t-47.5 145v307h108v-288q0 -67 28 -96.5t92 -29.5q65 0 97.5 31.5t32.5 102.5v280h108v-497h-1l-42 -55q-20 -23 -20 -39q0 -25 38 -25h51v-68h-75q-98 0 -98 68q0 35 45 87l29 32h-27v99h-4q-46 -109 -174 -109z" />
    <glyph glyph-name="Wcircumflex" unicode="&#x174;" horiz-adv-x="992" 
d="M432 730h-103v5l103 125h125l104 -125v-5h-103l-59 72h-8zM334 0h-157l-155 670h124l83 -377l29 -185h8l43 185l111 377h151l111 -377l43 -185h8l29 185l84 377h122l-156 -670h-157l-102 341l-54 208h-9l-54 -208z" />
    <glyph glyph-name="wcircumflex" unicode="&#x175;" horiz-adv-x="801" 
d="M338 560h-103v5l103 125h125l104 -125v-5h-103l-59 72h-8zM275 0h-141l-123 497h117l57 -276l20 -131h8l33 131l87 276h140l88 -277l31 -130h8l20 130l58 277h112l-123 -497h-140l-89 277l-33 125h-8l-32 -125z" />
    <glyph glyph-name="Ycircumflex" unicode="&#x176;" horiz-adv-x="634" 
d="M254 730h-103v5l103 125h125l104 -125v-5h-103l-59 72h-8zM370 0h-107v249l-260 421h123l127 -207l62 -105h7l61 105l126 207h122l-261 -423v-247z" />
    <glyph glyph-name="ycircumflex" unicode="&#x177;" horiz-adv-x="546" 
d="M210 560h-103v5l103 125h125l104 -125v-5h-103l-59 72h-8zM138 -170q-44 0 -75 9v88h68q33 0 47.5 8.5t26.5 35.5l19 42l-211 484h119l100 -241l45 -108h8l41 108l91 241h119l-235 -556q-27 -63 -64.5 -87t-98.5 -24z" />
    <glyph glyph-name="Ydieresis" unicode="&#x178;" horiz-adv-x="634" 
d="M462 730h-108v124h108v-124zM280 730h-108v124h108v-124zM370 0h-107v249l-260 421h123l127 -207l62 -105h7l61 105l126 207h122l-261 -423v-247z" />
    <glyph glyph-name="Zacute" unicode="&#x179;" horiz-adv-x="590" 
d="M359 730h-114v5l106 122h143v-5zM570 0h-547v90l387 475v8h-367v97h512v-90l-388 -475v-8h403v-97z" />
    <glyph glyph-name="zacute" unicode="&#x17a;" horiz-adv-x="530" 
d="M328 560h-113v5l108 125h143v-5zM500 0h-470v85l242 246l64 63v8h-291v95h440v-92l-249 -246l-58 -56v-8h322v-95z" />
    <glyph glyph-name="Zdotaccent" unicode="&#x17b;" horiz-adv-x="590" 
d="M349 730h-108v124h108v-124zM570 0h-547v90l387 475v8h-367v97h512v-90l-388 -475v-8h403v-97z" />
    <glyph glyph-name="zdotaccent" unicode="&#x17c;" horiz-adv-x="530" 
d="M319 560h-108v124h108v-124zM500 0h-470v85l242 246l64 63v8h-291v95h440v-92l-249 -246l-58 -56v-8h322v-95z" />
    <glyph glyph-name="Zcaron" unicode="&#x17d;" horiz-adv-x="590" 
d="M357 860h103v-5l-103 -125h-125l-104 125v5h103l59 -72h8zM570 0h-547v90l387 475v8h-367v97h512v-90l-388 -475v-8h403v-97z" />
    <glyph glyph-name="zcaron" unicode="&#x17e;" horiz-adv-x="530" 
d="M327 560h-125l-103 125v5h103l59 -72h8l59 72h103v-5zM500 0h-470v85l242 246l64 63v8h-291v95h440v-92l-249 -246l-58 -56v-8h322v-95z" />
    <glyph glyph-name="florin" unicode="&#x192;" horiz-adv-x="440" 
d="M4 -170h-52l17 97h41q58 0 82 18.5t33 69.5l48 271h-108l17 98h108l17 95q17 98 75.5 144.5t167.5 46.5h38l-16 -97h-42q-58 0 -82 -18.5t-33 -69.5l-18 -101h141l-17 -98h-141l-46 -265q-19 -102 -73 -146.5t-157 -44.5z" />
    <glyph glyph-name="AEacute" unicode="&#x1fc;" horiz-adv-x="1045" 
d="M677 730h-114v5l106 122h143v-5zM133 0h-133l464 670h541v-97h-371v-187h356v-98h-356v-191h371v-97h-479v174h-275zM518 570l-202 -299h210v299h-8z" />
    <glyph glyph-name="aeacute" unicode="&#x1fd;" horiz-adv-x="878" 
d="M499 560h-113v5l108 125h143v-5zM201 -10q-78 0 -124 34t-46 100q0 60 43 95t123 44l175 22v25q0 60 -27.5 81t-85.5 21q-57 0 -83 -21t-26 -76v-9h-105v10q0 84 60 137.5t158 53.5q117 0 172 -74q66 74 180 74q101 0 163 -58t62 -159q0 -41 -5 -68h-361
q2 -71 34.5 -103.5t106.5 -32.5q115 0 115 73v8h106v-9q0 -76 -61 -122t-161 -46q-148 0 -207 107q-28 -52 -83 -79.5t-123 -27.5zM610 416q-68 0 -99 -30.5t-36 -90.5h262q3 62 -29.5 91.5t-97.5 29.5zM136 133q0 -31 20.5 -44.5t67.5 -13.5q64 0 107 31.5t43 104.5
l-161 -20q-43 -5 -60 -18t-17 -40z" />
    <glyph glyph-name="Oslashacute" unicode="&#x1fe;" horiz-adv-x="697" 
d="M398 730h-114v5l106 122h143v-5zM349 -10q-124 0 -205 72l-87 -92l-58 55l93 98q-56 87 -56 212q0 157 85 251t228 94q122 0 204 -71l87 92l58 -55l-93 -98q56 -87 56 -213q0 -157 -85 -251t-227 -94zM151 335q0 -78 17 -131l316 333q-45 39 -135 39q-105 0 -151.5 -55.5
t-46.5 -185.5zM349 94q105 0 151 55.5t46 185.5q0 79 -17 132l-316 -333q44 -40 136 -40z" />
    <glyph glyph-name="oslashacute" unicode="&#x1ff;" horiz-adv-x="558" 
d="M336 560h-113v5l108 125h143v-5zM281 -10q-101 0 -166 57l-73 -71l-42 46l74 72q-41 64 -41 155q0 116 67 187t181 71q98 0 162 -55l72 70l43 -45l-74 -72q41 -64 41 -156q0 -117 -65.5 -188t-178.5 -71zM139 249q0 -51 10 -82l226 219q-32 25 -94 25q-77 0 -109.5 -38.5
t-32.5 -123.5zM281 86q77 0 108.5 38.5t31.5 124.5q0 53 -11 85l-227 -221q35 -27 98 -27z" />
    <glyph glyph-name="Scommaaccent" unicode="&#x218;" horiz-adv-x="604" 
d="M327 -10q-140 0 -208.5 58.5t-68.5 159.5v17h106v-11q0 -66 37 -95.5t138 -29.5q73 0 104 21t31 68t-23.5 68t-99.5 36l-114 23q-177 34 -177 184q0 81 64 136t186 55q131 0 195 -63t64 -160v-12h-106v11q0 64 -34.5 94.5t-121.5 30.5q-73 0 -106 -21t-33 -66t24 -64
t95 -34l114 -24q181 -37 181 -190q0 -84 -62.5 -138t-184.5 -54zM249 -200h-98v5l80 125h132v-5z" />
    <glyph glyph-name="scommaaccent" unicode="&#x219;" horiz-adv-x="495" 
d="M262 -10q-221 0 -221 178v2h104v-18q0 -42 24.5 -58t94.5 -16q57 0 76 12.5t19 42.5q0 29 -20 42t-77 23l-77 13q-71 13 -108 47t-37 99q0 69 54 109.5t150 40.5q91 0 148 -44.5t57 -126.5v-9h-103v12q0 39 -21.5 59t-83.5 20q-56 0 -77 -14t-21 -45q0 -28 17.5 -40
t70.5 -23l84 -16q74 -15 110 -49.5t36 -94.5q0 -69 -52.5 -107.5t-146.5 -38.5zM194 -200h-98v5l80 125h132v-5z" />
    <glyph glyph-name="Tcommaaccent" unicode="&#x21a;" horiz-adv-x="575" 
d="M341 0h-107v573h-228v97h563v-97h-228v-573zM234 -200h-98v5l80 125h132v-5z" />
    <glyph glyph-name="tcommaaccent" unicode="&#x21b;" horiz-adv-x="371" 
d="M261 0q-86 0 -127.5 35.5t-41.5 117.5v254h-83v90h85l23 123h83v-123h150v-90h-150v-249q0 -38 18.5 -49.5t70.5 -11.5h61v-88q-38 -9 -89 -9zM132 -200h-98v5l80 125h132v-5z" />
    <glyph glyph-name="dotlessj" unicode="&#x237;" horiz-adv-x="216" 
d="M-45 -170v98h39q38 0 49.5 9t11.5 40v520h108v-498q0 -94 -45 -131.5t-132 -37.5h-31z" />
    <glyph glyph-name="circumflex" unicode="&#x2c6;" 
d="M237 560h-103v5l103 125h125l104 -125v-5h-103l-59 72h-8z" />
    <glyph glyph-name="caron" unicode="&#x2c7;" 
d="M362 560h-125l-103 125v5h103l59 -72h8l59 72h103v-5z" />
    <glyph glyph-name="breve" unicode="&#x2d8;" 
d="M300 550q-60 0 -97 33t-37 87v17h78v-16q0 -29 12 -41t44 -12t44.5 12t12.5 41v16h77v-17q0 -54 -37 -87t-97 -33z" />
    <glyph glyph-name="dotaccent" unicode="&#x2d9;" 
d="M354 560h-108v124h108v-124z" />
    <glyph glyph-name="ring" unicode="&#x2da;" 
d="M300 544q-44 0 -70.5 24t-26.5 64t26.5 64t70.5 24t70.5 -24t26.5 -64t-26.5 -64t-70.5 -24zM300 592q25 0 35.5 9t10.5 31t-10.5 31t-35.5 9q-26 0 -36.5 -9t-10.5 -31t10.5 -31t36.5 -9z" />
    <glyph glyph-name="ogonek" unicode="&#x2db;" 
d="M386 -187h-75q-98 0 -98 68q0 35 45 87l29 32h72l-42 -55q-20 -23 -20 -39q0 -25 38 -25h51v-68z" />
    <glyph glyph-name="tilde" unicode="&#x2dc;" 
d="M219 569h-74v36q0 91 73 91q27 0 69 -24l37 -20q22 -13 38 -13q19 0 19 25v25h73v-40q0 -87 -71 -87q-30 0 -74 25l-39 21q-21 12 -33 12q-18 0 -18 -24v-27z" />
    <glyph glyph-name="hungarumlaut" unicode="&#x2dd;" 
d="M207 560h-92v5l74 125h123v-5zM379 560h-91v5l73 125h123v-5z" />
    <glyph glyph-name="gravecomb" unicode="&#x300;" 
d="M425 560h-112l-138 125v5h143l107 -125v-5z" />
    <glyph glyph-name="acutecomb" unicode="&#x301;" 
d="M287 560h-113v5l108 125h143v-5z" />
    <glyph glyph-name="circumflexcomb" unicode="&#x302;" 
d="M237 560h-103v5l103 125h125l104 -125v-5h-103l-59 72h-8z" />
    <glyph glyph-name="tildecomb" unicode="&#x303;" 
d="M219 569h-74v36q0 91 73 91q27 0 69 -24l37 -20q22 -13 38 -13q19 0 19 25v25h73v-40q0 -87 -71 -87q-30 0 -74 25l-39 21q-21 12 -33 12q-18 0 -18 -24v-27z" />
    <glyph glyph-name="macroncomb" unicode="&#x304;" 
d="M438 586h-277v78h277v-78z" />
    <glyph glyph-name="brevecomb" unicode="&#x306;" 
d="M300 550q-60 0 -97 33t-37 87v17h78v-16q0 -29 12 -41t44 -12t44.5 12t12.5 41v16h77v-17q0 -54 -37 -87t-97 -33z" />
    <glyph glyph-name="dotaccentcomb" unicode="&#x307;" 
d="M354 560h-108v124h108v-124z" />
    <glyph glyph-name="dieresiscomb" unicode="&#x308;" 
d="M445 560h-108v124h108v-124zM262 560h-107v124h107v-124z" />
    <glyph glyph-name="ringcomb" unicode="&#x30a;" 
d="M300 544q-44 0 -70.5 24t-26.5 64t26.5 64t70.5 24t70.5 -24t26.5 -64t-26.5 -64t-70.5 -24zM300 592q25 0 35.5 9t10.5 31t-10.5 31t-35.5 9q-26 0 -36.5 -9t-10.5 -31t10.5 -31t36.5 -9z" />
    <glyph glyph-name="hungarumlautcomb" unicode="&#x30b;" 
d="M207 560h-92v5l74 125h123v-5zM379 560h-91v5l73 125h123v-5z" />
    <glyph glyph-name="caroncomb" unicode="&#x30c;" 
d="M362 560h-125l-103 125v5h103l59 -72h8l59 72h103v-5z" />
    <glyph glyph-name="commaturnedabovecomb" unicode="&#x312;" 
d="M308 690h98v-5l-80 -125h-132v5z" />
    <glyph glyph-name="commaaccentcomb" unicode="&#x326;" 
d="M292 -200h-98v5l80 125h132v-5z" />
    <glyph glyph-name="cedillacomb" unicode="&#x327;" 
d="M292 -216h-83v61h80q35 0 35 24q0 15 -8.5 20t-26.5 5h-60v109h60v-54h6q45 0 70.5 -21.5t25.5 -59.5q0 -39 -26.5 -61.5t-72.5 -22.5z" />
    <glyph glyph-name="ogonekcomb" unicode="&#x328;" 
d="M386 -187h-75q-98 0 -98 68q0 35 45 87l29 32h72l-42 -55q-20 -23 -20 -39q0 -25 38 -25h51v-68z" />
    <glyph glyph-name="strokeshortcomb" unicode="&#x335;" 
d="M498 516h-396v83h396v-83z" />
    <glyph glyph-name="strokelongcomb" unicode="&#x336;" 
d="M663 489h-726v97h726v-97z" />
    <glyph glyph-name="slashshortcomb" unicode="&#x337;" 
d="M471 446l-310 -162l-33 65l311 161z" />
    <glyph glyph-name="slashlongcomb" unicode="&#x338;" 
d="M579 477l-516 -501l-42 46l515 500z" />
    <glyph glyph-name="Omega" unicode="&#x3a9;" horiz-adv-x="742" 
d="M336 0h-282v97h107q-123 65 -123 233q0 136 91 225t242 89t242 -89t91 -225q0 -167 -122 -233h107v-97h-282v97h7q99 1 137.5 59t38.5 162q0 222 -219 222q-218 0 -218 -222q0 -104 38.5 -162t136.5 -59h8v-97z" />
    <glyph glyph-name="pi" unicode="&#x3c0;" horiz-adv-x="655" 
d="M119 0v407h-113v90h625v-90h-130v-254q0 -38 18 -49.5t71 -11.5h41v-88q-36 -9 -69 -9q-86 0 -127.5 35.5t-41.5 117.5v259h-166v-407h-108z" />
    <glyph glyph-name="Wgrave" unicode="&#x1e80;" horiz-adv-x="992" 
d="M546 730h-113l-135 122v5h143l105 -122v-5zM334 0h-157l-155 670h124l83 -377l29 -185h8l43 185l111 377h151l111 -377l43 -185h8l29 185l84 377h122l-156 -670h-157l-102 341l-54 208h-9l-54 -208z" />
    <glyph glyph-name="wgrave" unicode="&#x1e81;" horiz-adv-x="801" 
d="M467 560h-112l-138 125v5h143l107 -125v-5zM275 0h-141l-123 497h117l57 -276l20 -131h8l33 131l87 276h140l88 -277l31 -130h8l20 130l58 277h112l-123 -497h-140l-89 277l-33 125h-8l-32 -125z" />
    <glyph glyph-name="Wacute" unicode="&#x1e82;" horiz-adv-x="992" 
d="M559 730h-114v5l106 122h143v-5zM334 0h-157l-155 670h124l83 -377l29 -185h8l43 185l111 377h151l111 -377l43 -185h8l29 185l84 377h122l-156 -670h-157l-102 341l-54 208h-9l-54 -208z" />
    <glyph glyph-name="wacute" unicode="&#x1e83;" horiz-adv-x="801" 
d="M464 560h-113v5l108 125h143v-5zM275 0h-141l-123 497h117l57 -276l20 -131h8l33 131l87 276h140l88 -277l31 -130h8l20 130l58 277h112l-123 -497h-140l-89 277l-33 125h-8l-32 -125z" />
    <glyph glyph-name="Wdieresis" unicode="&#x1e84;" horiz-adv-x="992" 
d="M640 730h-108v124h108v-124zM458 730h-108v124h108v-124zM334 0h-157l-155 670h124l83 -377l29 -185h8l43 185l111 377h151l111 -377l43 -185h8l29 185l84 377h122l-156 -670h-157l-102 341l-54 208h-9l-54 -208z" />
    <glyph glyph-name="wdieresis" unicode="&#x1e85;" horiz-adv-x="801" 
d="M546 560h-108v124h108v-124zM363 560h-107v124h107v-124zM275 0h-141l-123 497h117l57 -276l20 -131h8l33 131l87 276h140l88 -277l31 -130h8l20 130l58 277h112l-123 -497h-140l-89 277l-33 125h-8l-32 -125z" />
    <glyph glyph-name="Etilde" unicode="&#x1ebc;" horiz-adv-x="575" 
d="M215 739h-74v36q0 91 73 91q27 0 69 -24l37 -20q22 -13 38 -13q19 0 19 25v25h73v-40q0 -87 -71 -87q-30 0 -74 25l-39 21q-21 12 -33 12q-18 0 -18 -24v-27zM535 0h-479v670h479v-97h-371v-187h356v-98h-356v-191h371v-97z" />
    <glyph glyph-name="etilde" unicode="&#x1ebd;" horiz-adv-x="539" 
d="M188 569h-74v36q0 91 73 91q27 0 69 -24l37 -20q22 -13 38 -13q19 0 19 25v25h73v-40q0 -87 -71 -87q-30 0 -74 25l-39 21q-21 12 -33 12q-18 0 -18 -24v-27zM274 -10q-119 0 -180 69.5t-61 189.5q0 116 65 187t175 71q102 0 165 -58t63 -158q0 -38 -6 -68h-361
q3 -71 34.5 -104t106.5 -33q115 0 115 73v8h107v-9q0 -76 -61 -122t-162 -46zM271 416q-68 0 -99.5 -30.5t-36.5 -90.5h263q3 62 -29.5 91.5t-97.5 29.5z" />
    <glyph glyph-name="Ygrave" unicode="&#x1ef2;" horiz-adv-x="634" 
d="M368 730h-113l-135 122v5h143l105 -122v-5zM370 0h-107v249l-260 421h123l127 -207l62 -105h7l61 105l126 207h122l-261 -423v-247z" />
    <glyph glyph-name="ygrave" unicode="&#x1ef3;" horiz-adv-x="546" 
d="M339 560h-112l-138 125v5h143l107 -125v-5zM138 -170q-44 0 -75 9v88h68q33 0 47.5 8.5t26.5 35.5l19 42l-211 484h119l100 -241l45 -108h8l41 108l91 241h119l-235 -556q-27 -63 -64.5 -87t-98.5 -24z" />
    <glyph glyph-name="Ytilde" unicode="&#x1ef8;" horiz-adv-x="634" 
d="M236 739h-74v36q0 91 73 91q27 0 69 -24l37 -20q22 -13 38 -13q19 0 19 25v25h73v-40q0 -87 -71 -87q-30 0 -74 25l-39 21q-21 12 -33 12q-18 0 -18 -24v-27zM370 0h-107v249l-260 421h123l127 -207l62 -105h7l61 105l126 207h122l-261 -423v-247z" />
    <glyph glyph-name="ytilde" unicode="&#x1ef9;" horiz-adv-x="546" 
d="M192 569h-74v36q0 91 73 91q27 0 69 -24l37 -20q22 -13 38 -13q19 0 19 25v25h73v-40q0 -87 -71 -87q-30 0 -74 25l-39 21q-21 12 -33 12q-18 0 -18 -24v-27zM138 -170q-44 0 -75 9v88h68q33 0 47.5 8.5t26.5 35.5l19 42l-211 484h119l100 -241l45 -108h8l41 108l91 241
h119l-235 -556q-27 -63 -64.5 -87t-98.5 -24z" />
    <glyph glyph-name="endash" unicode="&#x2013;" horiz-adv-x="488" 
d="M472 248h-456v92h456v-92z" />
    <glyph glyph-name="emdash" unicode="&#x2014;" horiz-adv-x="831" 
d="M815 248h-799v92h799v-92z" />
    <glyph glyph-name="quoteleft" unicode="&#x2018;" horiz-adv-x="200" 
d="M125 682h36v-71h-33q-14 0 -20 -5t-6 -21v-21h61v-155h-137v174q0 99 99 99z" />
    <glyph glyph-name="quoteright" unicode="&#x2019;" horiz-adv-x="200" 
d="M67 397h-36v71h33q14 0 20 5t6 21v21h-61v155h137v-174q0 -99 -99 -99z" />
    <glyph glyph-name="quotesinglbase" unicode="&#x201a;" horiz-adv-x="224" 
d="M69 -118h-36v71h33q14 0 20 5t6 21v21h-61v155h137v-174q0 -99 -99 -99z" />
    <glyph glyph-name="quotedblleft" unicode="&#x201c;" horiz-adv-x="393" 
d="M125 682h36v-71h-33q-14 0 -20 -5t-6 -21v-21h61v-155h-137v174q0 99 99 99zM312 682h36v-71h-33q-14 0 -20 -5t-6 -21v-21h61v-155h-137v174q0 99 99 99z" />
    <glyph glyph-name="quotedblright" unicode="&#x201d;" horiz-adv-x="393" 
d="M267 397h-36v71h33q14 0 20 5t6 21v21h-61v155h137v-174q0 -99 -99 -99zM81 397h-36v71h33q14 0 20 5t6 21v21h-61v155h137v-174q0 -99 -99 -99z" />
    <glyph glyph-name="quotedblbase" unicode="&#x201e;" horiz-adv-x="372" 
d="M69 -118h-36v71h33q14 0 20 5t6 21v21h-61v155h137v-174q0 -99 -99 -99zM256 -118h-36v71h33q14 0 20 5t6 21v21h-61v155h137v-174q0 -99 -99 -99z" />
    <glyph glyph-name="dagger" unicode="&#x2020;" horiz-adv-x="446" 
d="M276 0h-107v410h-153v90h153v170h107v-170h154v-90h-154v-410z" />
    <glyph glyph-name="daggerdbl" unicode="&#x2021;" horiz-adv-x="446" 
d="M276 0h-107v170h-153v90h153v150h-153v90h153v170h107v-170h154v-90h-154v-150h154v-90h-154v-170z" />
    <glyph glyph-name="bullet" unicode="&#x2022;" horiz-adv-x="334" 
d="M167 212q-52 0 -87.5 34t-35.5 89t35.5 89t87.5 34t87.5 -33.5t35.5 -89.5t-35.5 -89.5t-87.5 -33.5z" />
    <glyph glyph-name="ellipsis" unicode="&#x2026;" horiz-adv-x="640" 
d="M178 0h-137v155h137v-155zM389 0h-137v155h137v-155zM599 0h-137v155h137v-155z" />
    <glyph glyph-name="perthousand" unicode="&#x2030;" horiz-adv-x="1151" 
d="M187 348q-76 0 -120 46.5t-44 119.5t44 119.5t120 46.5q77 0 120.5 -46.5t43.5 -119.5t-43.5 -119.5t-120.5 -46.5zM184 0h-106l513 670h105zM187 424q44 0 62.5 20.5t18.5 69.5t-18.5 69.5t-62.5 20.5t-62 -20.5t-18 -69.5t18 -69.5t62 -20.5zM963 -10q-76 0 -120 46
t-44 120q0 73 44 119.5t120 46.5q77 0 121 -46.5t44 -119.5q0 -74 -44 -120t-121 -46zM586 -10q-76 0 -120 46t-44 120q0 73 44 119.5t120 46.5q77 0 120.5 -46.5t43.5 -119.5q0 -74 -43.5 -120t-120.5 -46zM963 66q44 0 62.5 20.5t18.5 69.5t-18.5 69.5t-62.5 20.5
q-43 0 -61.5 -20.5t-18.5 -69.5t18.5 -69.5t61.5 -20.5zM586 66q44 0 62.5 20.5t18.5 69.5t-18.5 69.5t-62.5 20.5t-62 -20.5t-18 -69.5t18 -69.5t62 -20.5z" />
    <glyph glyph-name="guilsinglleft" unicode="&#x2039;" horiz-adv-x="254" 
d="M24 363l200 138v-110l-125 -82v-8l125 -82v-110l-200 138v116z" />
    <glyph glyph-name="guilsinglright" unicode="&#x203a;" horiz-adv-x="254" 
d="M230 247l-200 -138v110l125 82v8l-125 82v110l200 -138v-116z" />
    <glyph glyph-name="fraction" unicode="&#x2044;" horiz-adv-x="210" 
d="M-98 0h-106l513 670h105z" />
    <glyph glyph-name="zero.superior" unicode="&#x2070;" horiz-adv-x="386" 
d="M193 325q-78 0 -122.5 48.5t-44.5 128.5t44.5 129t122.5 49t122.5 -49t44.5 -129t-44.5 -128.5t-122.5 -48.5zM193 401q47 0 65.5 22t18.5 79q0 58 -18.5 80t-65.5 22t-65.5 -22t-18.5 -80q0 -57 18.5 -79t65.5 -22z" />
    <glyph glyph-name="four.superior" unicode="&#x2074;" horiz-adv-x="379" 
d="M301 335h-79v66h-196v61l187 208h88v-198h52v-71h-52v-66zM115 472h107v118h-4l-103 -113v-5z" />
    <glyph glyph-name="Euro" unicode="&#x20ac;" horiz-adv-x="714" 
d="M392 -10q-119 0 -198.5 63t-105.5 175h-78v71h67q-1 12 -1 36t1 36h-67v71h78q26 112 105.5 175t198.5 63q133 0 209.5 -68.5t76.5 -180.5v-6h-115v6q0 73 -41.5 109t-132.5 36q-81 0 -126.5 -31.5t-61.5 -102.5h268v-71h-277q-1 -11 -1 -36t1 -36h277v-71h-268
q16 -71 61.5 -102.5t126.5 -31.5q91 0 132.5 36t41.5 109v6h115v-6q0 -112 -76.5 -180.5t-209.5 -68.5z" />
    <glyph glyph-name="indianrupee" unicode="&#x20b9;" horiz-adv-x="573" 
d="M498 0h-128l-133 184q-27 36 -57.5 52.5t-82.5 16.5h-61v90h173q57 0 83 17t32 58h-288v90h290v72h-290v90h507v-90h-110v-72h110v-90h-113q-9 -65 -52 -101t-118 -35v-4q55 -22 113 -101z" />
    <glyph glyph-name="trademark" unicode="&#x2122;" horiz-adv-x="552" 
d="M325 469h-52v201h71l56 -137h3l55 137h71v-201h-52v84l1 34h-4l-45 -106h-58l-44 106h-3l1 -33v-85zM159 469h-57v148h-79v53h215v-53h-79v-148z" />
    <glyph glyph-name="Ohm" unicode="&#x2126;" horiz-adv-x="742" 
d="M336 0h-282v97h107q-123 65 -123 233q0 136 91 225t242 89t242 -89t91 -225q0 -167 -122 -233h107v-97h-282v97h7q99 1 137.5 59t38.5 162q0 222 -219 222q-218 0 -218 -222q0 -104 38.5 -162t136.5 -59h8v-97z" />
    <glyph glyph-name="estimated" unicode="&#x212e;" horiz-adv-x="726" 
d="M371 -10q-164 0 -251.5 92t-87.5 253q0 159 87.5 252t247.5 93q167 0 248 -96.5t79 -265.5h-472v-190q56 -34 149 -34q90 0 142.5 39t52.5 115h115q1 -112 -84.5 -185t-225.5 -73zM222 543v-128h282v128q-59 33 -137 33q-86 0 -145 -33z" />
    <glyph glyph-name="partialdiff" unicode="&#x2202;" horiz-adv-x="642" 
d="M265 -10q-117 0 -176 48t-59 139q0 103 74.5 170.5t192.5 67.5q152 0 182 -102h5q16 73 16 122q0 141 -155 141h-147v104h152q128 0 193 -65.5t65 -183.5q0 -196 -88.5 -318.5t-254.5 -122.5zM281 94q81 0 126.5 35t45.5 99q0 51 -32.5 73.5t-105.5 22.5
q-88 0 -132.5 -32.5t-44.5 -106.5q0 -49 32.5 -70t110.5 -21z" />
    <glyph glyph-name="product" unicode="&#x220f;" horiz-adv-x="630" 
d="M172 -115h-108v785h502v-785h-108v688h-286v-688z" />
    <glyph glyph-name="summation" unicode="&#x2211;" horiz-adv-x="530" 
d="M509 -115h-460v91l178 191l97 106v8l-100 107l-175 190v92h460v-95h-315v-8l48 -53l182 -194v-85l-182 -194l-48 -53v-9h315v-94z" />
    <glyph glyph-name="minus" unicode="&#x2212;" horiz-adv-x="500" 
d="M450 290h-417v90h417v-90z" />
    <glyph glyph-name="radical" unicode="&#x221a;" horiz-adv-x="698" 
d="M492 0h-136l-150 400l-153 -89l-53 88l169 98h120l133 -394h8l199 567h117z" />
    <glyph glyph-name="infinity" unicode="&#x221e;" horiz-adv-x="721" 
d="M208 150q-77 0 -125.5 50.5t-48.5 134.5t48.5 134.5t125.5 50.5q54 0 92 -23t50 -68q51 91 165 91q75 0 123.5 -50.5t48.5 -134.5t-48.5 -134.5t-124.5 -50.5q-55 0 -93.5 24t-50.5 70q-50 -94 -162 -94zM503 427q-23 0 -39.5 -8t-29.5 -28t-19 -34t-17 -45
q14 -69 99 -69t85 92t-79 92zM139 335q0 -92 82 -92q18 0 33 7.5t23.5 15.5t18.5 28.5t13.5 30t12.5 37.5q-14 65 -97 65q-86 0 -86 -92z" />
    <glyph glyph-name="integral" unicode="&#x222b;" horiz-adv-x="321" 
d="M-20 -170v86h37q70 0 70 60v517q0 86 49.5 131.5t145.5 45.5h20v-86h-37q-70 0 -70 -60v-517q0 -86 -49.5 -131.5t-145.5 -45.5h-20z" />
    <glyph glyph-name="approxequal" unicode="&#x2248;" horiz-adv-x="519" 
d="M125 173h-92v67q0 66 43 92v2h-43v59q0 118 105 118q37 0 94 -31l58 -26q52 -27 76 -27q30 0 30 32v47h90v-68q0 -67 -42 -92v-2h42v-63q0 -113 -95 -113q-45 0 -113 35l-57 26q-44 23 -63 23q-33 0 -33 -35v-44zM380 258q33 0 33 36v40q-8 -5 -17 -5q-42 0 -116 37
l-63 29q-45 25 -69 25q-41 0 -41 -39v-36q12 5 23 5q40 0 98 -31l66 -31q62 -30 86 -30z" />
    <glyph glyph-name="notequal" unicode="&#x2260;" horiz-adv-x="490" 
d="M457 177h-266l-63 -103l-69 38l40 65h-59v90h114l83 136h-197v90h252l65 106l69 -38l-42 -68h73v-90h-128l-83 -136h211v-90z" />
    <glyph glyph-name="lessequal" unicode="&#x2264;" horiz-adv-x="480" 
d="M447 48h-417v90h321v8l-321 126v126l417 159v-102l-319 -116v-8l319 -115v-168z" />
    <glyph glyph-name="greaterequal" unicode="&#x2265;" horiz-adv-x="480" 
d="M450 48h-417v168l318 115v8l-318 116v102l417 -159v-126l-322 -126v-8h322v-90z" />
    <glyph glyph-name="lozenge" unicode="&#x25ca;" horiz-adv-x="547" 
d="M271 48h7l116 245l-116 245h-7l-115 -245zM341 -46h-136l-169 339l169 339h136l170 -339z" />
    <glyph glyph-name="t_t" horiz-adv-x="667" 
d="M243 0q-77 0 -115.5 36t-38.5 117v254h-76v90h78l22 123h84v-123h194l23 123h83v-123h150v-90h-150v-249q0 -38 18.5 -49.5t70.5 -11.5h61v-88q-38 -9 -89 -9q-86 0 -127.5 35.5t-41.5 117.5v254h-192v-249q0 -38 18 -49.5t70 -11.5h51v-88q-36 -9 -93 -9z" />
    <glyph glyph-name="tcaron_t" horiz-adv-x="667" 
d="M269 533h-32v64h30q13 0 17.5 4.5t4.5 19.5v20h-54v143h124v-161q0 -90 -90 -90zM243 0q-77 0 -115.5 36t-38.5 117v254h-76v90h78l22 123h84v-123h194l23 123h83v-123h150v-90h-150v-249q0 -38 18.5 -49.5t70.5 -11.5h61v-88q-38 -9 -89 -9q-86 0 -127.5 35.5
t-41.5 117.5v254h-192v-249q0 -38 18 -49.5t70 -11.5h51v-88q-36 -9 -93 -9z" />
    <glyph glyph-name="IJacute" horiz-adv-x="767" 
d="M174 730h-114v5l106 122h143v-5zM722 730h-114v5l106 122h143v-5zM164 0h-108v670h108v-670zM470 -10q-252 0 -252 254v28h114v-36q0 -80 26.5 -111t108.5 -31t108 31t26 111v434h115v-426q0 -119 -60 -186.5t-186 -67.5z" />
    <glyph glyph-name="idotaccent" horiz-adv-x="201" 
d="M154 560h-107l-1 110h108v-110zM155 0h-108v500h108v-500z" />
    <glyph glyph-name="ijacute" horiz-adv-x="434" 
d="M162 560h-113v5l108 125h143v-5zM388 560h-113v5l108 125h143v-5zM154 0h-108v500h108v-500zM173 -170v98h39q38 0 49.5 9t11.5 40v520h108v-498q0 -94 -45 -131.5t-132 -37.5h-31z" />
    <glyph glyph-name="acutecomb.case" 
d="M289 730h-114v5l106 122h143v-5z" />
    <glyph glyph-name="brevecomb.case" 
d="M300 720q-60 0 -97 33t-37 87v11h78v-10q0 -29 12 -41t44 -12t44.5 12t12.5 41v10h77v-11q0 -54 -37 -87t-97 -33z" />
    <glyph glyph-name="caroncomb.alt" 
d="M272 419h-32v64h30q12 0 17 4.5t5 19.5v20h-54v143h124v-161q0 -90 -90 -90z" />
    <glyph glyph-name="caroncomb.alt.case" 
d="M272 419h-32v64h30q12 0 17 4.5t5 19.5v20h-54v143h124v-161q0 -90 -90 -90z" />
    <glyph glyph-name="caroncomb.case" 
d="M362 860h103v-5l-103 -125h-125l-104 125v5h103l59 -72h8z" />
    <glyph glyph-name="cedillacomb.case" 
d="M292 -216h-83v61h80q35 0 35 24q0 15 -8.5 20t-26.5 5h-60v109h60v-54h6q45 0 70.5 -21.5t25.5 -59.5q0 -39 -26.5 -61.5t-72.5 -22.5z" />
    <glyph glyph-name="circumflexcomb.case" 
d="M237 730h-103v5l103 125h125l104 -125v-5h-103l-59 72h-8z" />
    <glyph glyph-name="commaaccentcomb.case" 
d="M292 -200h-98v5l80 125h132v-5z" />
    <glyph glyph-name="dieresiscomb.case" 
d="M445 730h-108v124h108v-124zM263 730h-108v124h108v-124z" />
    <glyph glyph-name="dotaccentcomb.case" 
d="M354 730h-108v124h108v-124z" />
    <glyph glyph-name="gravecomb.case" 
d="M424 730h-113l-135 122v5h143l105 -122v-5z" />
    <glyph glyph-name="hungarumlautcomb.case" 
d="M380 730h-92v5l72 122h123v-5zM208 730h-92v5l72 122h123v-5z" />
    <glyph glyph-name="macroncomb.case" 
d="M438 756h-277v78h277v-78z" />
    <glyph glyph-name="ogonekcomb.case" 
d="M386 -187h-75q-98 0 -98 68q0 35 45 87l29 32h72l-42 -55q-20 -23 -20 -39q0 -25 38 -25h51v-68z" />
    <glyph glyph-name="ringcomb.case" 
d="M300 714q-44 0 -70.5 24t-26.5 64t26.5 64t70.5 24t70.5 -24t26.5 -64t-26.5 -64t-70.5 -24zM300 762q25 0 35.5 9t10.5 31t-10.5 31t-35.5 9q-26 0 -36.5 -9t-10.5 -31t10.5 -31t36.5 -9z" />
    <glyph glyph-name="slashlongcomb.case" 
d="M649 646l-641 -676l-58 55l641 676z" />
    <glyph glyph-name="slashshortcomb.case" 
d="M497 408l-394 -162v102l394 162v-102z" />
    <glyph glyph-name="strokeshortcomb.case" 
d="M527 301h-455v97h455v-97z" />
    <glyph glyph-name="tildecomb.case" 
d="M219 739h-74v36q0 91 73 91q27 0 69 -24l37 -20q22 -13 38 -13q19 0 19 25v25h73v-40q0 -87 -71 -87q-30 0 -74 25l-39 21q-21 12 -33 12q-18 0 -18 -24v-27z" />
    <glyph glyph-name="d.component" horiz-adv-x="609" 
d="M250 -10q-104 0 -160.5 61.5t-56.5 167.5t56 167t157 61q58 0 101 -25t62 -63h3v311h107v-670h-99v82h-4q-20 -43 -63.5 -67.5t-102.5 -24.5zM141 219q0 -75 31.5 -106t104.5 -31q63 0 99 30.5t36 91.5v29q0 61 -35.5 91.5t-98.5 30.5q-73 0 -105 -31t-32 -105z" />
    <glyph glyph-name="h.component" horiz-adv-x="604" 
d="M196 0h-107v670h107v-316h5q20 39 61.5 66t104.5 27q93 0 138.5 -53.5t45.5 -140.5v-253h-107v228q0 68 -26.5 97t-92.5 29q-68 0 -98.5 -29.5t-30.5 -98.5v-226z" />
    <glyph glyph-name="ITF" horiz-adv-x="1739" 
d="M110 0v700h216v-700h-216zM371 496v204h216v-204h-216zM631 0v700h217v-700h-217zM892 496v204h216v-204h-216zM1152 0v700h217v-700h-217zM1413 496v204h216v-204h-216zM1413 247v205h216v-205h-216z" />
    </font>
</defs>
</svg>
